<svg xmlns="http://www.w3.org/2000/svg" xmlns:xlink="http://www.w3.org/1999/xlink" width="1104" zoomAndPan="magnify" viewBox="0 0 828 540.000001" height="720" preserveAspectRatio="xMidYMid meet" version="1.0"><defs><g/><clipPath id="733ccfaae0"><path d="M 0.765625 0 L 827.234375 0 L 827.234375 539 L 0.765625 539 Z M 0.765625 0 " clip-rule="nonzero"/></clipPath><clipPath id="a067054412"><path d="M 383.894531 190.738281 L 384.644531 190.738281 L 384.644531 406.339844 L 383.894531 406.339844 Z M 383.894531 190.738281 " clip-rule="nonzero"/></clipPath></defs><g clip-path="url(#733ccfaae0)"><path fill="#ffffff" d="M 0.765625 0 L 827.234375 0 L 827.234375 539 L 0.765625 539 Z M 0.765625 0 " fill-opacity="1" fill-rule="nonzero"/><path fill="#c0c0c0" d="M 0.765625 0 L 827.234375 0 L 827.234375 539 L 0.765625 539 Z M 0.765625 0 " fill-opacity="1" fill-rule="nonzero"/></g><path fill="#898a8d" d="M 19.398438 323.4375 C 20.6875 323.214844 22.671875 323.214844 23.953125 323.4375 L 23.953125 333.992188 C 23.953125 339.621094 21.101562 342.058594 16.210938 342.058594 C 11.320312 342.058594 8.472656 339.621094 8.472656 333.992188 L 8.472656 323.4375 C 9.761719 323.214844 11.742188 323.214844 13.023438 323.4375 L 13.023438 334.695312 C 13.023438 336.792969 14.117188 338.335938 16.210938 338.335938 C 18.304688 338.335938 19.398438 336.800781 19.398438 334.695312 Z M 19.398438 323.4375 " fill-opacity="1" fill-rule="nonzero"/><path fill="#898a8d" d="M 44.554688 341.644531 C 43.265625 341.867188 42.347656 341.867188 41.058594 341.644531 L 32.589844 330.976562 L 32.589844 341.644531 C 31.300781 341.867188 29.402344 341.867188 28.121094 341.644531 L 28.121094 323.4375 C 29.410156 323.214844 30.328125 323.214844 31.617188 323.4375 L 40.085938 334.105469 L 40.085938 323.4375 C 41.375 323.214844 43.273438 323.214844 44.554688 323.4375 Z M 44.554688 341.644531 " fill-opacity="1" fill-rule="nonzero"/><path fill="#898a8d" d="M 53.273438 341.644531 C 51.984375 341.867188 50.089844 341.867188 48.804688 341.644531 L 48.804688 323.4375 C 50.09375 323.214844 51.992188 323.214844 53.273438 323.4375 Z M 53.273438 341.644531 " fill-opacity="1" fill-rule="nonzero"/><path fill="#898a8d" d="M 70.101562 323.4375 C 71.390625 323.214844 73.429688 323.214844 74.710938 323.4375 L 67.472656 341.644531 C 66.1875 341.867188 65.070312 341.867188 63.78125 341.644531 L 56.546875 323.4375 C 57.835938 323.214844 59.875 323.214844 61.15625 323.4375 L 65.625 334.949219 Z M 70.101562 323.4375 " fill-opacity="1" fill-rule="nonzero"/><path fill="#898a8d" d="M 90.648438 337.917969 C 90.871094 339.207031 90.871094 340.351562 90.648438 341.644531 L 77.980469 341.644531 L 77.980469 323.4375 L 90.648438 323.4375 C 90.871094 324.730469 90.871094 325.871094 90.648438 327.164062 L 82.457031 327.164062 L 82.457031 330.582031 L 89.695312 330.582031 C 89.917969 331.875 89.917969 333.015625 89.695312 334.308594 L 82.457031 334.308594 L 82.457031 337.921875 L 90.648438 337.921875 Z M 90.648438 337.917969 " fill-opacity="1" fill-rule="nonzero"/><path fill="#898a8d" d="M 101.433594 323.4375 C 105.492188 323.4375 108.285156 325.871094 108.285156 329.460938 C 108.285156 331.921875 106.96875 333.851562 104.820312 334.808594 L 109.230469 341.644531 C 107.941406 341.867188 105.652344 341.867188 104.371094 341.644531 L 100.371094 335.480469 L 98.640625 335.480469 L 98.640625 341.644531 C 97.351562 341.867188 95.453125 341.867188 94.171875 341.644531 L 94.171875 323.4375 Z M 98.640625 331.753906 L 101.433594 331.753906 C 102.667969 331.753906 103.726562 331.023438 103.726562 329.460938 C 103.726562 327.894531 102.660156 327.164062 101.433594 327.164062 L 98.640625 327.164062 Z M 98.640625 331.753906 " fill-opacity="1" fill-rule="nonzero"/><path fill="#898a8d" d="M 123.410156 324.421875 C 123.632812 325.09375 123.71875 328.285156 123.410156 328.679688 C 121.371094 327.472656 119.773438 326.75 118.410156 326.75 C 117.148438 326.75 116.339844 327.367188 116.339844 328.425781 C 116.339844 329.578125 117.351562 329.910156 119.585938 330.609375 C 121.820312 331.3125 124.726562 332.511719 124.726562 336.296875 C 124.726562 340.132812 121.734375 342.0625 118.042969 342.0625 C 116.0625 342.0625 113.960938 341.503906 112.566406 340.660156 C 112.34375 340.070312 112.257812 336.792969 112.566406 336.398438 C 114.605469 337.605469 116.285156 338.332031 117.875 338.332031 C 119.464844 338.332031 120.195312 337.601562 120.195312 336.625 C 120.195312 335.53125 119.355469 335.226562 116.839844 334.414062 C 114.632812 333.683594 111.808594 332.371094 111.808594 328.871094 C 111.808594 325.703125 114.128906 323.015625 118.378906 323.015625 C 120.503906 323.015625 122.175781 323.691406 123.410156 324.421875 Z M 123.410156 324.421875 " fill-opacity="1" fill-rule="nonzero"/><path fill="#898a8d" d="M 132.824219 341.644531 C 131.535156 341.867188 129.636719 341.867188 128.355469 341.644531 L 128.355469 323.4375 C 129.644531 323.214844 131.542969 323.214844 132.824219 323.4375 Z M 132.824219 341.644531 " fill-opacity="1" fill-rule="nonzero"/><path fill="#898a8d" d="M 150.574219 323.4375 C 150.800781 324.730469 150.800781 325.871094 150.574219 327.164062 L 145.65625 327.164062 L 145.65625 341.644531 C 144.367188 341.867188 142.46875 341.867188 141.1875 341.644531 L 141.1875 327.164062 L 136.269531 327.164062 C 136.046875 325.871094 136.046875 324.730469 136.269531 323.4375 Z M 150.574219 323.4375 " fill-opacity="1" fill-rule="nonzero"/><path fill="#898a8d" d="M 164.046875 341.644531 C 162.757812 341.867188 160.859375 341.867188 159.578125 341.644531 L 159.578125 335.339844 L 152.949219 323.4375 C 154.238281 323.214844 156.445312 323.214844 157.726562 323.4375 L 161.8125 331.164062 L 165.894531 323.4375 C 167.183594 323.214844 169.390625 323.214844 170.671875 323.4375 L 164.046875 335.339844 Z M 164.046875 341.644531 " fill-opacity="1" fill-rule="nonzero"/><path fill="#898a8d" d="M 192.355469 335.453125 C 192.355469 339.011719 189.710938 341.929688 185.796875 341.929688 C 181.882812 341.929688 179.238281 339.019531 179.238281 335.453125 C 179.238281 331.894531 181.882812 328.976562 185.796875 328.976562 C 189.710938 328.976562 192.355469 331.894531 192.355469 335.453125 Z M 182.335938 335.453125 C 182.335938 337.929688 183.933594 339.398438 185.796875 339.398438 C 187.660156 339.398438 189.257812 337.929688 189.257812 335.453125 C 189.257812 332.976562 187.660156 331.507812 185.796875 331.507812 C 183.933594 331.507812 182.335938 332.976562 182.335938 335.453125 Z M 182.335938 335.453125 " fill-opacity="1" fill-rule="nonzero"/><path fill="#898a8d" d="M 202.785156 334.253906 C 202.9375 335.128906 202.9375 335.910156 202.785156 336.785156 L 197.859375 336.785156 L 197.859375 341.644531 C 196.984375 341.796875 195.695312 341.796875 194.820312 341.644531 L 194.820312 329.261719 L 203.429688 329.261719 C 203.582031 330.140625 203.582031 330.917969 203.429688 331.796875 L 197.859375 331.796875 L 197.859375 334.253906 Z M 202.785156 334.253906 " fill-opacity="1" fill-rule="nonzero"/><path fill="#898a8d" d="M 237.339844 341.644531 C 236.050781 341.867188 234.265625 341.867188 232.984375 341.644531 L 230.75 331.425781 L 227.054688 341.644531 C 225.769531 341.867188 224.765625 341.867188 223.476562 341.644531 L 219.785156 331.425781 L 217.550781 341.644531 C 216.261719 341.867188 214.476562 341.867188 213.195312 341.644531 L 217.496094 323.4375 C 218.785156 323.214844 219.953125 323.214844 221.242188 323.4375 L 225.269531 334.582031 L 229.296875 323.4375 C 230.585938 323.214844 231.757812 323.214844 233.046875 323.4375 Z M 237.339844 341.644531 " fill-opacity="1" fill-rule="nonzero"/><path fill="#898a8d" d="M 257.996094 341.644531 C 256.710938 341.867188 254.671875 341.867188 253.386719 341.644531 L 252.101562 338.195312 L 245.445312 338.195312 L 244.15625 341.644531 C 242.867188 341.867188 240.828125 341.867188 239.546875 341.644531 L 246.921875 323.4375 C 248.210938 323.214844 249.324219 323.214844 250.613281 323.4375 Z M 250.699219 334.414062 L 248.773438 329.207031 L 246.847656 334.414062 Z M 250.699219 334.414062 " fill-opacity="1" fill-rule="nonzero"/><path fill="#898a8d" d="M 268.535156 323.4375 C 272.589844 323.4375 275.382812 325.871094 275.382812 329.460938 C 275.382812 331.921875 274.066406 333.851562 271.917969 334.808594 L 276.332031 341.644531 C 275.042969 341.867188 272.75 341.867188 271.46875 341.644531 L 267.46875 335.480469 L 265.738281 335.480469 L 265.738281 341.644531 C 264.449219 341.867188 262.550781 341.867188 261.269531 341.644531 L 261.269531 323.4375 Z M 265.738281 331.753906 L 268.535156 331.753906 C 269.765625 331.753906 270.824219 331.023438 270.824219 329.460938 C 270.824219 327.894531 269.757812 327.164062 268.535156 327.164062 L 265.738281 327.164062 Z M 265.738281 331.753906 " fill-opacity="1" fill-rule="nonzero"/><path fill="#898a8d" d="M 289.640625 341.644531 C 288.351562 341.867188 286.453125 341.867188 285.171875 341.644531 L 285.171875 335.339844 L 278.542969 323.4375 C 279.832031 323.214844 282.039062 323.214844 283.320312 323.4375 L 287.40625 331.164062 L 291.488281 323.4375 C 292.777344 323.214844 294.984375 323.214844 296.265625 323.4375 L 289.640625 335.339844 Z M 289.640625 341.644531 " fill-opacity="1" fill-rule="nonzero"/><path fill="#898a8d" d="M 311.496094 337.917969 C 311.71875 339.207031 311.71875 340.351562 311.496094 341.644531 L 299.53125 341.644531 L 299.53125 323.4375 C 300.820312 323.214844 302.71875 323.214844 304 323.4375 L 304 337.917969 Z M 311.496094 337.917969 " fill-opacity="1" fill-rule="nonzero"/><path fill="#898a8d" d="M 333.433594 341.644531 C 332.144531 341.867188 330.109375 341.867188 328.824219 341.644531 L 327.535156 338.195312 L 320.882812 338.195312 L 319.59375 341.644531 C 318.304688 341.867188 316.265625 341.867188 314.984375 341.644531 L 322.359375 323.4375 C 323.648438 323.214844 324.761719 323.214844 326.050781 323.4375 Z M 326.144531 334.414062 L 324.214844 329.207031 L 322.289062 334.414062 Z M 326.144531 334.414062 " fill-opacity="1" fill-rule="nonzero"/><path fill="#898a8d" d="M 353.0625 341.644531 C 351.773438 341.867188 350.855469 341.867188 349.566406 341.644531 L 341.097656 330.976562 L 341.097656 341.644531 C 339.808594 341.867188 337.910156 341.867188 336.628906 341.644531 L 336.628906 323.4375 C 337.917969 323.214844 338.835938 323.214844 340.125 323.4375 L 348.59375 334.105469 L 348.59375 323.4375 C 349.882812 323.214844 351.78125 323.214844 353.0625 323.4375 Z M 353.0625 341.644531 " fill-opacity="1" fill-rule="nonzero"/><path fill="#898a8d" d="M 364.214844 323.4375 C 369.972656 323.4375 373.863281 327.304688 373.863281 332.539062 C 373.863281 337.777344 369.972656 341.644531 364.214844 341.644531 L 357.308594 341.644531 L 357.308594 323.4375 Z M 364.214844 337.917969 C 366.953125 337.917969 369.300781 336.183594 369.300781 332.539062 C 369.300781 328.898438 366.953125 327.164062 364.214844 327.164062 L 361.785156 327.164062 L 361.785156 337.917969 Z M 364.214844 337.917969 " fill-opacity="1" fill-rule="nonzero"/><path fill="#898a8d" d="M 93.769531 363.53125 C 93.996094 364.824219 93.996094 365.96875 93.769531 367.257812 L 81.113281 367.257812 L 81.113281 349.0625 L 93.769531 349.0625 C 93.996094 350.351562 93.996094 351.496094 93.769531 352.789062 L 85.582031 352.789062 L 85.582031 356.207031 L 92.820312 356.207031 C 93.042969 357.496094 93.042969 358.640625 92.820312 359.933594 L 85.582031 359.933594 L 85.582031 363.546875 L 93.769531 363.546875 Z M 93.769531 363.53125 " fill-opacity="1" fill-rule="nonzero"/><path fill="#898a8d" d="M 114.816406 367.253906 C 113.527344 367.476562 111.488281 367.476562 110.207031 367.253906 L 108.917969 363.804688 L 102.269531 363.804688 L 100.980469 367.253906 C 99.691406 367.476562 97.652344 367.476562 96.371094 367.253906 L 103.746094 349.054688 C 105.035156 348.828125 106.148438 348.828125 107.4375 349.054688 Z M 107.523438 360.03125 L 105.597656 354.824219 L 103.667969 360.03125 Z M 107.523438 360.03125 " fill-opacity="1" fill-rule="nonzero"/><path fill="#898a8d" d="M 128.566406 350.035156 C 128.789062 350.710938 128.875 353.902344 128.566406 354.289062 C 126.527344 353.082031 124.929688 352.359375 123.5625 352.359375 C 122.304688 352.359375 121.496094 352.976562 121.496094 354.035156 C 121.496094 355.1875 122.507812 355.519531 124.742188 356.21875 C 126.976562 356.921875 129.882812 358.121094 129.882812 361.90625 C 129.882812 365.742188 126.890625 367.671875 123.207031 367.671875 C 121.222656 367.671875 119.128906 367.113281 117.730469 366.277344 C 117.503906 365.6875 117.421875 362.410156 117.730469 362.023438 C 119.765625 363.230469 121.449219 363.953125 123.039062 363.953125 C 124.628906 363.953125 125.355469 363.222656 125.355469 362.25 C 125.355469 361.152344 124.515625 360.851562 122 360.039062 C 119.796875 359.308594 116.972656 357.996094 116.972656 354.492188 C 116.972656 351.328125 119.289062 348.640625 123.542969 348.640625 C 125.660156 348.632812 127.332031 349.308594 128.566406 350.035156 Z M 128.566406 350.035156 " fill-opacity="1" fill-rule="nonzero"/><path fill="#898a8d" d="M 147.066406 349.054688 C 147.289062 350.34375 147.289062 351.488281 147.066406 352.78125 L 142.148438 352.78125 L 142.148438 367.257812 C 140.859375 367.484375 138.960938 367.484375 137.679688 367.257812 L 137.679688 352.78125 L 132.761719 352.78125 C 132.539062 351.488281 132.539062 350.34375 132.761719 349.054688 Z M 147.066406 349.054688 " fill-opacity="1" fill-rule="nonzero"/><path fill="#898a8d" d="M 163.304688 363.53125 C 163.527344 364.824219 163.527344 365.96875 163.304688 367.257812 L 150.644531 367.257812 L 150.644531 349.0625 L 163.304688 349.0625 C 163.527344 350.351562 163.527344 351.496094 163.304688 352.789062 L 155.113281 352.789062 L 155.113281 356.207031 L 162.351562 356.207031 C 162.574219 357.496094 162.574219 358.640625 162.351562 359.933594 L 155.113281 359.933594 L 155.113281 363.546875 L 163.304688 363.546875 Z M 163.304688 363.53125 " fill-opacity="1" fill-rule="nonzero"/><path fill="#898a8d" d="M 174.222656 349.054688 C 178.273438 349.054688 181.070312 351.488281 181.070312 355.074219 C 181.070312 357.539062 179.75 359.46875 177.601562 360.421875 L 182.015625 367.253906 C 180.730469 367.476562 178.433594 367.476562 177.152344 367.253906 L 173.160156 361.089844 L 171.429688 361.089844 L 171.429688 367.253906 C 170.148438 367.476562 168.242188 367.476562 166.960938 367.253906 L 166.960938 349.054688 Z M 171.4375 357.371094 L 174.230469 357.371094 C 175.464844 357.371094 176.523438 356.640625 176.523438 355.074219 C 176.523438 353.511719 175.457031 352.78125 174.230469 352.78125 L 171.4375 352.78125 Z M 171.4375 357.371094 " fill-opacity="1" fill-rule="nonzero"/><path fill="#898a8d" d="M 201.222656 367.253906 C 199.933594 367.476562 199.015625 367.476562 197.726562 367.253906 L 189.257812 356.585938 L 189.257812 367.253906 C 187.976562 367.476562 186.070312 367.476562 184.789062 367.253906 L 184.789062 349.054688 C 186.078125 348.828125 186.996094 348.828125 188.285156 349.054688 L 196.753906 359.722656 L 196.753906 349.054688 C 198.042969 348.828125 199.941406 348.828125 201.222656 349.054688 Z M 201.222656 367.253906 " fill-opacity="1" fill-rule="nonzero"/><path fill="#898a8d" d="M 224.058594 350.035156 C 224.28125 350.710938 224.367188 353.902344 224.058594 354.289062 C 222.019531 353.082031 220.421875 352.359375 219.058594 352.359375 C 217.796875 352.359375 216.992188 352.976562 216.992188 354.035156 C 216.992188 355.1875 218 355.519531 220.234375 356.21875 C 222.46875 356.921875 225.375 358.121094 225.375 361.90625 C 225.375 365.742188 222.382812 367.671875 218.699219 367.671875 C 216.71875 367.671875 214.621094 367.113281 213.222656 366.277344 C 212.996094 365.6875 212.914062 362.410156 213.222656 362.023438 C 215.261719 363.230469 216.941406 363.953125 218.53125 363.953125 C 220.121094 363.953125 220.851562 363.222656 220.851562 362.25 C 220.851562 361.152344 220.007812 360.851562 217.496094 360.039062 C 215.289062 359.308594 212.464844 357.996094 212.464844 354.492188 C 212.464844 351.328125 214.785156 348.640625 219.035156 348.640625 C 221.152344 348.632812 222.824219 349.308594 224.058594 350.035156 Z M 224.058594 350.035156 " fill-opacity="1" fill-rule="nonzero"/><path fill="#898a8d" d="M 241.128906 349.054688 C 242.410156 348.828125 244.316406 348.828125 245.597656 349.054688 L 245.597656 367.253906 C 244.308594 367.476562 242.410156 367.476562 241.128906 367.253906 L 241.128906 359.917969 L 233.613281 359.917969 L 233.613281 367.253906 C 232.332031 367.476562 230.425781 367.476562 229.144531 367.253906 L 229.144531 349.054688 C 230.433594 348.828125 232.332031 348.828125 233.613281 349.054688 L 233.613281 356.191406 L 241.128906 356.191406 Z M 241.128906 349.054688 " fill-opacity="1" fill-rule="nonzero"/><path fill="#898a8d" d="M 267.539062 358.15625 C 267.539062 363.390625 263.652344 367.671875 257.898438 367.671875 C 252.140625 367.671875 248.261719 363.390625 248.261719 358.15625 C 248.261719 352.921875 252.148438 348.640625 257.898438 348.640625 C 263.652344 348.632812 267.539062 352.921875 267.539062 358.15625 Z M 252.8125 358.15625 C 252.8125 361.800781 255.160156 363.953125 257.898438 363.953125 C 260.640625 363.953125 262.984375 361.800781 262.984375 358.15625 C 262.984375 354.515625 260.640625 352.359375 257.898438 352.359375 C 255.160156 352.359375 252.8125 354.515625 252.8125 358.15625 Z M 252.8125 358.15625 " fill-opacity="1" fill-rule="nonzero"/><path fill="#898a8d" d="M 277.457031 349.054688 C 281.507812 349.054688 284.300781 351.488281 284.300781 355.074219 C 284.300781 357.539062 282.984375 359.46875 280.835938 360.421875 L 285.246094 367.253906 C 283.964844 367.476562 281.667969 367.476562 280.386719 367.253906 L 276.394531 361.089844 L 274.664062 361.089844 L 274.664062 367.253906 C 273.382812 367.476562 271.476562 367.476562 270.195312 367.253906 L 270.195312 349.054688 Z M 274.664062 357.371094 L 277.457031 357.371094 C 278.691406 357.371094 279.75 356.640625 279.75 355.074219 C 279.75 353.511719 278.683594 352.78125 277.457031 352.78125 L 274.664062 352.78125 Z M 274.664062 357.371094 " fill-opacity="1" fill-rule="nonzero"/><path fill="#898a8d" d="M 301.324219 363.53125 C 301.546875 364.824219 301.546875 365.96875 301.324219 367.257812 L 288.667969 367.257812 L 288.667969 349.0625 L 301.324219 349.0625 C 301.546875 350.351562 301.546875 351.496094 301.324219 352.789062 L 293.136719 352.789062 L 293.136719 356.207031 L 300.371094 356.207031 C 300.59375 357.496094 300.59375 358.640625 300.371094 359.933594 L 293.136719 359.933594 L 293.136719 363.546875 L 301.324219 363.546875 Z M 301.324219 363.53125 " fill-opacity="1" fill-rule="nonzero"/><path fill="#898a8d" d="M 138.644531 286.445312 C 139.050781 286.367188 139.648438 286.367188 140.054688 286.445312 L 140.054688 293.546875 C 139.648438 293.625 139.050781 293.625 138.644531 293.546875 L 138.644531 290.527344 L 135.207031 290.527344 L 135.207031 293.546875 C 134.800781 293.625 134.191406 293.625 133.792969 293.546875 L 133.792969 286.445312 C 134.199219 286.367188 134.808594 286.367188 135.207031 286.445312 L 135.207031 289.351562 L 138.644531 289.351562 Z M 138.644531 286.445312 " fill-opacity="1" fill-rule="nonzero"/><path fill="#898a8d" d="M 145.335938 286.445312 C 146.679688 286.445312 147.605469 287.195312 147.605469 288.28125 C 147.605469 289.046875 147.191406 289.59375 146.605469 289.871094 C 147.332031 290.148438 147.78125 290.765625 147.78125 291.5625 C 147.78125 292.78125 146.839844 293.546875 145.355469 293.546875 L 142.378906 293.546875 L 142.378906 286.445312 Z M 143.789062 289.449219 L 145.214844 289.449219 C 145.804688 289.449219 146.191406 289.117188 146.191406 288.542969 C 146.191406 287.953125 145.796875 287.625 145.1875 287.625 L 143.792969 287.625 L 143.792969 289.449219 Z M 143.789062 292.367188 L 145.273438 292.367188 C 145.960938 292.367188 146.34375 292.007812 146.34375 291.390625 C 146.34375 290.800781 145.972656 290.453125 145.25 290.453125 L 143.789062 290.453125 Z M 143.789062 292.367188 " fill-opacity="1" fill-rule="nonzero"/><path fill="#898a8d" d="M 155.578125 291.835938 C 155.675781 291.96875 155.652344 292.9375 155.578125 293.125 C 155.09375 293.433594 154.34375 293.714844 153.347656 293.714844 C 150.941406 293.714844 149.414062 292.042969 149.414062 290.003906 C 149.414062 287.960938 150.941406 286.289062 153.347656 286.289062 C 154.34375 286.289062 155.09375 286.578125 155.578125 286.878906 C 155.652344 287.0625 155.675781 288.039062 155.578125 288.171875 C 154.847656 287.699219 154.128906 287.46875 153.425781 287.46875 C 151.984375 287.46875 150.855469 288.472656 150.855469 290.003906 C 150.855469 291.53125 151.992188 292.535156 153.425781 292.535156 C 154.128906 292.527344 154.847656 292.304688 155.578125 291.835938 Z M 155.578125 291.835938 " fill-opacity="1" fill-rule="nonzero"/><path fill="#898a8d" d="M 162.414062 286.445312 C 162.820312 286.367188 163.449219 286.367188 163.855469 286.445312 L 163.855469 290.65625 C 163.855469 292.738281 162.757812 293.714844 160.902344 293.714844 C 159.042969 293.714844 157.929688 292.738281 157.929688 290.65625 L 157.929688 286.445312 C 158.335938 286.367188 158.96875 286.367188 159.375 286.445312 L 159.375 290.859375 C 159.375 291.855469 159.921875 292.527344 160.902344 292.527344 C 161.875 292.527344 162.414062 291.847656 162.414062 290.859375 Z M 162.414062 286.445312 " fill-opacity="1" fill-rule="nonzero"/><path fill="#898a8d" d="M 218.71875 286.445312 C 219.125 286.367188 219.429688 286.367188 219.835938 286.445312 L 219.835938 293.546875 C 219.429688 293.625 218.820312 293.625 218.425781 293.546875 L 218.425781 288.015625 L 216.886719 289.117188 C 216.789062 288.976562 216.808594 287.9375 216.886719 287.75 Z M 218.71875 286.445312 " fill-opacity="1" fill-rule="nonzero"/><path fill="#898a8d" d="M 226.691406 288.207031 C 226.691406 288.972656 226.277344 289.59375 225.667969 289.890625 C 226.433594 290.199219 226.867188 290.867188 226.867188 291.671875 C 226.867188 292.964844 225.769531 293.730469 224.304688 293.730469 C 222.839844 293.730469 221.738281 292.964844 221.738281 291.671875 C 221.738281 290.867188 222.175781 290.199219 222.9375 289.890625 C 222.328125 289.59375 221.914062 288.972656 221.914062 288.207031 C 221.914062 287.125 222.820312 286.28125 224.304688 286.28125 C 225.789062 286.28125 226.691406 287.125 226.691406 288.207031 Z M 224.246094 290.507812 C 223.625 290.507812 223.175781 290.902344 223.175781 291.511719 C 223.175781 292.179688 223.679688 292.535156 224.296875 292.535156 C 224.921875 292.535156 225.417969 292.179688 225.417969 291.511719 C 225.417969 290.902344 224.984375 290.507812 224.34375 290.507812 Z M 223.308594 288.429688 C 223.308594 288.984375 223.703125 289.40625 224.246094 289.40625 L 224.359375 289.40625 C 224.914062 289.40625 225.296875 288.976562 225.296875 288.429688 C 225.296875 287.882812 224.921875 287.453125 224.304688 287.453125 C 223.695312 287.460938 223.308594 287.890625 223.308594 288.429688 Z M 223.308594 288.429688 " fill-opacity="1" fill-rule="nonzero"/><path fill="#898a8d" d="M 233.3125 288.207031 C 233.3125 288.972656 232.898438 289.59375 232.289062 289.890625 C 233.054688 290.199219 233.488281 290.867188 233.488281 291.671875 C 233.488281 292.964844 232.386719 293.730469 230.921875 293.730469 C 229.460938 293.730469 228.359375 292.964844 228.359375 291.671875 C 228.359375 290.867188 228.792969 290.199219 229.558594 289.890625 C 228.949219 289.59375 228.535156 288.972656 228.535156 288.207031 C 228.535156 287.125 229.4375 286.28125 230.921875 286.28125 C 232.410156 286.28125 233.3125 287.125 233.3125 288.207031 Z M 230.867188 290.507812 C 230.242188 290.507812 229.796875 290.902344 229.796875 291.511719 C 229.796875 292.179688 230.300781 292.535156 230.917969 292.535156 C 231.539062 292.535156 232.039062 292.179688 232.039062 291.511719 C 232.039062 290.902344 231.601562 290.507812 230.964844 290.507812 Z M 229.929688 288.429688 C 229.929688 288.984375 230.320312 289.40625 230.867188 289.40625 L 230.980469 289.40625 C 231.53125 289.40625 231.917969 288.976562 231.917969 288.429688 C 231.917969 287.882812 231.539062 287.453125 230.921875 287.453125 C 230.3125 287.460938 229.929688 287.890625 229.929688 288.429688 Z M 229.929688 288.429688 " fill-opacity="1" fill-rule="nonzero"/><path fill="#898a8d" d="M 240.34375 291.25 C 240.34375 292.585938 239.351562 293.707031 237.746094 293.707031 C 236.121094 293.707031 235.125 292.59375 235.125 291.097656 C 235.125 288.835938 237.320312 286.878906 238.105469 286.445312 C 238.496094 286.367188 239.421875 286.367188 239.828125 286.445312 C 238.691406 287.34375 237.632812 288.28125 237.101562 289.34375 C 237.355469 289.167969 237.730469 288.992188 238.257812 289.007812 C 239.554688 289.035156 240.34375 290.039062 240.34375 291.25 Z M 238.910156 291.273438 C 238.910156 290.550781 238.441406 290.09375 237.753906 290.09375 C 237.269531 290.09375 236.890625 290.324219 236.652344 290.5625 C 236.597656 290.800781 236.578125 291.046875 236.578125 291.292969 C 236.578125 291.980469 237.011719 292.527344 237.746094 292.527344 C 238.425781 292.527344 238.910156 292.03125 238.910156 291.273438 Z M 238.910156 291.273438 " fill-opacity="1" fill-rule="nonzero"/><path fill="#d9d8d6" d="M 190.519531 321.410156 C 194.863281 321.410156 200.625 319.136719 203.945312 316.742188 C 203.660156 316.453125 202.636719 315.429688 202.636719 315.429688 C 206.230469 315.554688 209.277344 313.828125 211.945312 311.027344 C 211.945312 311.027344 210.789062 310.082031 210.789062 310.082031 C 214.222656 308.398438 215.226562 306.816406 216.261719 303.539062 C 216.261719 303.539062 208.457031 292.664062 205.753906 288.710938 C 223.582031 276.640625 276.910156 282.191406 289.4375 250.488281 L 285.757812 250.601562 C 301.289062 242.988281 310.984375 224.941406 307.578125 201.242188 C 303.824219 205.867188 298.515625 211.601562 293.597656 214.375 C 294.03125 206.886719 292.097656 204.414062 291.082031 198.554688 C 286.402344 203.957031 281.640625 209.011719 275.246094 213.035156 L 276.695312 208.332031 L 276.667969 208.351562 L 269.464844 213.890625 C 259.222656 221.765625 246.320312 226.082031 231.238281 226.710938 C 223.246094 227.195312 210.054688 232.769531 203.261719 238.082031 C 199.925781 233.78125 195.371094 231.300781 190.539062 231.300781 L 190.496094 231.300781 C 185.664062 231.300781 181.101562 233.78125 177.777344 238.082031 C 170.980469 232.769531 157.796875 227.195312 149.796875 226.710938 C 134.714844 226.082031 121.8125 221.765625 111.570312 213.890625 L 104.371094 208.351562 L 104.34375 208.332031 L 105.792969 213.035156 C 99.398438 209.011719 94.632812 203.957031 89.953125 198.554688 C 88.9375 204.414062 87.003906 206.886719 87.4375 214.375 C 82.519531 211.609375 77.210938 205.867188 73.457031 201.242188 C 70.050781 224.941406 79.746094 242.988281 95.277344 250.601562 L 91.601562 250.488281 C 104.125 282.191406 157.453125 276.632812 175.28125 288.710938 C 172.570312 292.664062 164.773438 303.539062 164.773438 303.539062 C 165.820312 306.816406 166.8125 308.390625 170.246094 310.082031 C 170.246094 310.082031 169.089844 311.027344 169.089844 311.027344 C 171.757812 313.828125 174.804688 315.554688 178.398438 315.429688 C 178.398438 315.429688 177.375 316.453125 177.089844 316.742188 C 180.410156 319.140625 186.175781 321.410156 190.519531 321.410156 Z M 271.390625 216.402344 C 271.390625 216.402344 271.390625 216.394531 271.390625 216.402344 M 178.378906 242.972656 L 178.378906 242.980469 L 178.378906 242.972656 " fill-opacity="1" fill-rule="nonzero"/><path fill="#691c32" d="M 109.660156 216.402344 C 121.503906 225.511719 135.445312 229.28125 149.617188 229.871094 C 158.191406 230.390625 174.175781 237.660156 178.386719 242.988281 L 178.386719 242.980469 L 178.386719 242.988281 C 181.355469 237.296875 185.9375 234.460938 190.523438 234.46875 C 195.121094 234.460938 199.695312 237.289062 202.664062 242.988281 L 202.664062 242.972656 L 202.664062 242.980469 C 206.875 237.652344 222.867188 230.382812 231.433594 229.863281 C 245.605469 229.265625 259.539062 225.503906 271.390625 216.394531 C 271.390625 216.394531 270.875 218.085938 269.332031 220.347656 C 277.507812 216.304688 284.464844 211.277344 289.878906 205.25 C 290.261719 206.921875 292.503906 212.351562 289.421875 220.5 C 292.15625 219.453125 300.484375 214.914062 305.90625 208.652344 C 307.011719 216.648438 303.011719 229.757812 291.679688 235.996094 C 293.886719 235.738281 297.484375 234.734375 300.132812 233.238281 C 297.679688 238.417969 295.753906 243.4375 276.945312 252.203125 C 278.277344 252.890625 279.867188 253.429688 281.613281 253.726562 C 282.496094 253.878906 283.355469 253.957031 284.191406 253.976562 C 269.039062 279.265625 214.925781 273.859375 201.984375 287.785156 C 203.679688 290.234375 212.535156 303.820312 212.535156 303.820312 C 211.863281 306.613281 209.09375 308.65625 206.566406 308.65625 L 207.996094 310.054688 C 203.996094 314.0625 198.152344 313.148438 198.152344 313.148438 L 199.632812 315.058594 C 196.171875 317.261719 194.257812 318.214844 190.53125 318.214844 C 186.804688 318.207031 184.894531 317.261719 181.433594 315.058594 L 182.910156 313.148438 C 182.910156 313.148438 177.074219 314.0625 173.070312 310.054688 L 174.496094 308.65625 C 171.96875 308.65625 169.203125 306.613281 168.53125 303.820312 C 168.53125 303.820312 177.382812 290.226562 179.078125 287.785156 C 166.140625 273.859375 112.035156 279.265625 96.875 253.976562 C 97.707031 253.964844 98.570312 253.878906 99.453125 253.726562 C 101.191406 253.421875 102.78125 252.890625 104.117188 252.203125 C 85.308594 243.4375 83.375 238.417969 80.929688 233.238281 C 83.570312 234.734375 87.171875 235.738281 89.386719 235.996094 C 78.050781 229.757812 74.050781 216.648438 75.160156 208.652344 C 80.582031 214.914062 88.910156 219.449219 91.640625 220.5 C 88.558594 212.351562 90.800781 206.921875 91.1875 205.25 C 96.601562 211.277344 103.558594 216.304688 111.734375 220.347656 C 110.175781 218.09375 109.660156 216.402344 109.660156 216.402344 Z M 109.660156 216.402344 " fill-opacity="1" fill-rule="nonzero"/><path fill="#d9d8d6" d="M 194.617188 252.027344 C 193.910156 252.074219 192.773438 252.160156 192.773438 252.160156 C 192.773438 252.160156 192.761719 251.765625 192.746094 251.585938 C 192.710938 251.105469 192.613281 250.636719 192.429688 250.179688 C 192.277344 249.800781 192.050781 249.449219 191.800781 249.128906 C 191.457031 248.699219 191.101562 248.292969 190.75 247.871094 C 190.679688 247.789062 190.601562 247.703125 190.523438 247.613281 C 190.449219 247.703125 190.371094 247.789062 190.300781 247.871094 C 189.949219 248.292969 189.59375 248.699219 189.25 249.128906 C 188.992188 249.449219 188.773438 249.800781 188.621094 250.179688 C 188.4375 250.636719 188.339844 251.105469 188.304688 251.585938 C 188.289062 251.761719 188.277344 252.160156 188.277344 252.160156 C 188.277344 252.160156 185.886719 251.984375 185.878906 251.992188 C 185.902344 252.003906 187.5625 253.417969 187.5625 253.417969 C 187.5625 253.417969 188.5 254.285156 188.808594 254.863281 C 189.152344 255.488281 189.902344 257.832031 190.519531 257.832031 C 191.128906 257.832031 191.882812 255.480469 192.226562 254.863281 C 192.542969 254.285156 193.472656 253.417969 193.472656 253.417969 C 193.472656 253.417969 194.238281 252.765625 194.742188 252.34375 C 194.980469 252.144531 194.917969 252.003906 194.617188 252.027344 Z M 189.746094 250.890625 C 189.648438 251.058594 189.453125 251.246094 189.339844 251.402344 C 189.207031 251.585938 189.089844 251.765625 189.03125 252.003906 C 189.027344 251.984375 189.019531 251.964844 189.019531 251.941406 C 188.96875 251.738281 188.964844 251.535156 189.011719 251.324219 C 189.074219 251.007812 189.207031 250.714844 189.453125 250.539062 C 189.550781 250.46875 189.664062 250.417969 189.769531 250.488281 C 189.847656 250.589844 189.832031 250.757812 189.746094 250.890625 Z M 192.03125 251.949219 C 192.023438 251.96875 192.015625 251.992188 192.015625 252.011719 C 191.960938 251.773438 191.835938 251.589844 191.710938 251.410156 C 191.597656 251.253906 191.402344 251.058594 191.304688 250.898438 C 191.21875 250.761719 191.203125 250.59375 191.289062 250.503906 C 191.386719 250.433594 191.507812 250.484375 191.605469 250.554688 C 191.84375 250.726562 191.976562 251.023438 192.046875 251.339844 C 192.085938 251.535156 192.085938 251.746094 192.03125 251.949219 Z M 192.03125 251.949219 " fill-opacity="1" fill-rule="nonzero"/><path fill="#d9d8d6" d="M 184.753906 247.191406 C 184.492188 247 184.242188 246.796875 183.996094 246.601562 C 183.953125 246.644531 183.914062 246.6875 183.871094 246.734375 C 183.261719 247.472656 183.339844 248.628906 184.039062 249.3125 C 184.738281 249.992188 185.796875 249.949219 186.40625 249.207031 C 186.574219 249 186.6875 248.761719 186.757812 248.511719 C 186.511719 248.371094 186.273438 248.222656 186.035156 248.070312 C 186.027344 248.265625 185.957031 248.460938 185.832031 248.621094 C 185.523438 249 184.984375 249.023438 184.628906 248.671875 C 184.269531 248.320312 184.234375 247.738281 184.542969 247.359375 C 184.605469 247.296875 184.675781 247.242188 184.753906 247.191406 Z M 184.753906 247.191406 " fill-opacity="1" fill-rule="nonzero"/><path fill="#d9d8d6" d="M 186.292969 281.035156 C 185.929688 279.824219 185.039062 280.050781 184.492188 280.535156 C 183.527344 281.382812 184.410156 282.175781 183.527344 283.539062 C 186.050781 283.417969 186.582031 282 186.292969 281.035156 Z M 186.292969 281.035156 " fill-opacity="1" fill-rule="nonzero"/><path fill="#d9d8d6" d="M 176.09375 277.300781 C 175.75 276.660156 174.988281 276.140625 174.238281 277.144531 C 173.628906 277.953125 173.644531 279.460938 175.96875 280.449219 C 175.613281 278.863281 176.703125 278.429688 176.09375 277.300781 Z M 176.09375 277.300781 " fill-opacity="1" fill-rule="nonzero"/><path fill="#d9d8d6" d="M 178.132812 274.324219 C 177.789062 273.683594 177.027344 273.164062 176.277344 274.167969 C 175.667969 274.976562 175.679688 276.484375 178.007812 277.476562 C 177.648438 275.894531 178.742188 275.460938 178.132812 274.324219 Z M 178.132812 274.324219 " fill-opacity="1" fill-rule="nonzero"/><path fill="#d9d8d6" d="M 180.621094 271.964844 C 180.277344 271.328125 179.511719 270.808594 178.765625 271.8125 C 178.15625 272.617188 178.167969 274.128906 180.492188 275.117188 C 180.128906 273.539062 181.230469 273.09375 180.621094 271.964844 Z M 180.621094 271.964844 " fill-opacity="1" fill-rule="nonzero"/><path fill="#898a8d" d="M 186 278.878906 C 185.804688 277.53125 183.183594 274.007812 182.289062 273.46875 C 183.890625 276.191406 181.707031 278.128906 183.40625 279.789062 C 183.882812 279.066406 184.789062 278.484375 186 278.878906 Z M 186 278.878906 " fill-opacity="1" fill-rule="nonzero"/><path fill="#898a8d" d="M 199.511719 243.289062 C 199.5625 243.648438 199.597656 244.011719 199.597656 244.390625 C 199.597656 246.550781 198.691406 248.484375 197.292969 249.738281 L 201.089844 247.421875 C 200.554688 240.171875 195.539062 236.609375 190.523438 236.671875 C 185.507812 236.609375 180.492188 240.171875 179.960938 247.421875 L 183.511719 249.589844 L 183.757812 249.738281 C 183.6875 249.675781 183.609375 249.605469 183.542969 249.535156 C 182.257812 248.277344 181.453125 246.441406 181.453125 244.390625 C 181.453125 244.011719 181.488281 243.648438 181.539062 243.289062 C 182.933594 245.136719 184.894531 246.890625 187.136719 248.238281 C 187.589844 247.789062 188.058594 247.402344 188.472656 247.234375 C 189.152344 246.953125 189.851562 246.828125 190.523438 246.839844 C 191.199219 246.828125 191.898438 246.953125 192.578125 247.234375 C 192.992188 247.410156 193.46875 247.789062 193.914062 248.238281 C 196.15625 246.890625 198.117188 245.136719 199.511719 243.289062 Z M 199.511719 243.289062 " fill-opacity="1" fill-rule="nonzero"/><path fill="#d9d8d6" d="M 194.757812 281.035156 C 195.121094 279.824219 196.011719 280.050781 196.554688 280.535156 C 197.523438 281.382812 196.640625 282.175781 197.523438 283.539062 C 194.996094 283.417969 194.460938 282 194.757812 281.035156 Z M 194.757812 281.035156 " fill-opacity="1" fill-rule="nonzero"/><path fill="#d9d8d6" d="M 204.949219 277.300781 C 205.292969 276.660156 206.054688 276.140625 206.804688 277.144531 C 207.414062 277.953125 207.402344 279.460938 205.074219 280.449219 C 205.4375 278.863281 204.339844 278.429688 204.949219 277.300781 Z M 204.949219 277.300781 " fill-opacity="1" fill-rule="nonzero"/><path fill="#d9d8d6" d="M 202.910156 274.324219 C 203.253906 273.683594 204.015625 273.164062 204.765625 274.167969 C 205.375 274.976562 205.363281 276.484375 203.035156 277.476562 C 203.394531 275.894531 202.300781 275.460938 202.910156 274.324219 Z M 202.910156 274.324219 " fill-opacity="1" fill-rule="nonzero"/><path fill="#d9d8d6" d="M 200.421875 271.964844 C 200.765625 271.328125 201.53125 270.808594 202.28125 271.8125 C 202.890625 272.617188 202.875 274.128906 200.550781 275.117188 C 200.914062 273.539062 199.8125 273.09375 200.421875 271.964844 Z M 200.421875 271.964844 " fill-opacity="1" fill-rule="nonzero"/><path fill="#898a8d" d="M 195.050781 278.878906 C 195.246094 277.53125 197.867188 274.007812 198.761719 273.46875 C 197.160156 276.191406 199.34375 278.128906 197.640625 279.789062 C 197.160156 279.066406 196.261719 278.484375 195.050781 278.878906 Z M 195.050781 278.878906 " fill-opacity="1" fill-rule="nonzero"/><path fill="#898a8d" d="M 270.46875 225.792969 C 275.902344 223.105469 280.777344 220.023438 285.042969 216.585938 C 284.722656 218.949219 281.15625 227.460938 280.328125 229.878906 C 286.578125 227.371094 292.121094 225.945312 298.523438 221.539062 C 285.785156 249.796875 226.003906 240.542969 205.097656 247.480469 C 229.082031 228.332031 236.128906 242.125 270.46875 225.792969 Z M 270.46875 225.792969 " fill-opacity="1" fill-rule="nonzero"/><path fill="#898a8d" d="M 176.65625 247.480469 C 155.746094 240.542969 95.964844 249.796875 83.230469 221.539062 C 89.632812 225.941406 95.171875 227.371094 101.421875 229.878906 C 100.585938 227.460938 97.027344 218.941406 96.707031 216.585938 C 100.980469 220.023438 105.847656 223.105469 111.285156 225.792969 C 145.621094 242.125 152.671875 228.332031 176.65625 247.480469 Z M 176.65625 247.480469 " fill-opacity="1" fill-rule="nonzero"/><path fill="#898a8d" d="M 91.734375 239.890625 C 95.144531 243.507812 106.304688 249.332031 114.863281 249.90625 C 112.453125 252.1875 105.757812 255.816406 104.417969 256.082031 C 118.652344 256.316406 122.640625 254.777344 139.695312 247.28125 C 120.328125 248.933594 108.335938 245.273438 91.734375 239.890625 Z M 91.734375 239.890625 " fill-opacity="1" fill-rule="nonzero"/><path fill="#898a8d" d="M 289.898438 240.234375 C 286.488281 243.851562 275.328125 249.675781 266.769531 250.25 C 269.179688 252.53125 275.875 256.160156 277.210938 256.425781 C 262.980469 256.660156 258.992188 255.121094 241.933594 247.625 C 261.304688 249.277344 273.296875 245.617188 289.898438 240.234375 Z M 289.898438 240.234375 " fill-opacity="1" fill-rule="nonzero"/><path fill="#898a8d" d="M 209.339844 304.710938 C 209.339844 304.710938 202.679688 294.234375 201.824219 292.878906 L 207.722656 304.644531 C 205.9375 306.753906 200.570312 306.453125 199.253906 305.574219 L 202.34375 308.859375 C 199.511719 310.882812 194.113281 309.722656 192.382812 309.234375 L 194.707031 313.289062 C 192.871094 314.894531 188.320312 315.113281 186.085938 313.304688 L 188.394531 309.234375 C 186.671875 309.722656 181.257812 311.042969 178.398438 308.882812 L 181.507812 305.574219 C 180.191406 306.453125 174.855469 306.796875 173.117188 304.648438 C 173.117188 304.648438 178.925781 292.878906 178.960938 292.878906 C 178.996094 292.878906 171.421875 304.710938 171.421875 304.710938 C 172.824219 307.09375 177.082031 308.101562 178.398438 307.226562 L 176.234375 309.21875 C 178.917969 311.652344 184.390625 311.203125 186.113281 310.714844 L 184.152344 313.652344 C 185.265625 314.488281 186.722656 315.84375 190.414062 315.789062 C 193.726562 315.789062 195.808594 314.441406 196.632812 313.640625 L 194.679688 310.714844 C 196.4375 311.34375 201.980469 311.511719 204.65625 309.21875 L 202.496094 307.226562 C 203.8125 308.101562 207.941406 307.09375 209.339844 304.710938 Z M 209.339844 304.710938 " fill-opacity="1" fill-rule="nonzero"/><path fill="#d9d8d6" d="M 196.289062 247.191406 C 196.550781 247 196.800781 246.796875 197.046875 246.601562 C 197.089844 246.644531 197.132812 246.6875 197.171875 246.734375 C 197.78125 247.472656 197.707031 248.628906 197.003906 249.3125 C 196.304688 249.992188 195.246094 249.949219 194.636719 249.207031 C 194.46875 249 194.355469 248.761719 194.285156 248.511719 C 194.53125 248.371094 194.769531 248.222656 195.007812 248.070312 C 195.015625 248.265625 195.085938 248.460938 195.210938 248.621094 C 195.519531 249 196.058594 249.023438 196.417969 248.671875 C 196.773438 248.320312 196.808594 247.738281 196.5 247.359375 C 196.445312 247.296875 196.367188 247.242188 196.289062 247.191406 Z M 196.289062 247.191406 " fill-opacity="1" fill-rule="nonzero"/><g clip-path="url(#a067054412)"><path fill="#000000" d="M 384.347656 406.339844 L 384.113281 379.390625 L 383.976562 352.441406 L 383.863281 298.539062 L 383.972656 244.640625 L 384.109375 217.691406 L 384.347656 190.738281 L 384.585938 217.691406 L 384.722656 244.640625 L 384.832031 298.539062 L 384.71875 352.441406 L 384.582031 379.390625 Z M 384.347656 406.339844 " fill-opacity="1" fill-rule="nonzero"/></g><g fill="#000000" fill-opacity="1"><g transform="translate(401.603643, 252.349133)"><g><path d="M 17.125 0.453125 C 14.238281 0.453125 11.695312 -0.144531 9.5 -1.34375 C 7.300781 -2.550781 5.578125 -4.359375 4.328125 -6.765625 C 3.085938 -9.171875 2.46875 -12.140625 2.46875 -15.671875 C 2.46875 -19.203125 3.085938 -22.171875 4.328125 -24.578125 C 5.578125 -26.984375 7.300781 -28.785156 9.5 -29.984375 C 11.695312 -31.191406 14.238281 -31.796875 17.125 -31.796875 C 20.144531 -31.796875 22.707031 -31.203125 24.8125 -30.015625 C 26.925781 -28.835938 28.429688 -27.046875 29.328125 -24.640625 L 24.796875 -21.875 L 24.265625 -21.890625 C 23.597656 -23.515625 22.6875 -24.679688 21.53125 -25.390625 C 20.382812 -26.097656 18.914062 -26.453125 17.125 -26.453125 C 14.53125 -26.453125 12.503906 -25.585938 11.046875 -23.859375 C 9.585938 -22.140625 8.859375 -19.410156 8.859375 -15.671875 C 8.859375 -11.941406 9.585938 -9.210938 11.046875 -7.484375 C 12.503906 -5.765625 14.53125 -4.90625 17.125 -4.90625 C 21.195312 -4.90625 23.691406 -6.882812 24.609375 -10.84375 L 25.140625 -10.84375 L 29.71875 -8.46875 C 28.851562 -5.5 27.382812 -3.269531 25.3125 -1.78125 C 23.238281 -0.289062 20.507812 0.453125 17.125 0.453125 Z M 17.125 0.453125 "/></g></g><g transform="translate(432.342826, 252.349133)"><g><path d="M 23.375 -10.484375 L 8.171875 -10.484375 C 8.335938 -8.421875 8.921875 -6.921875 9.921875 -5.984375 C 10.921875 -5.054688 12.285156 -4.59375 14.015625 -4.59375 C 15.378906 -4.59375 16.484375 -4.84375 17.328125 -5.34375 C 18.171875 -5.851562 18.847656 -6.625 19.359375 -7.65625 L 19.8125 -7.65625 L 23.75 -5.125 C 22.976562 -3.46875 21.8125 -2.125 20.25 -1.09375 C 18.695312 -0.0625 16.617188 0.453125 14.015625 0.453125 C 11.578125 0.453125 9.46875 -0.0078125 7.6875 -0.9375 C 5.90625 -1.875 4.53125 -3.257812 3.5625 -5.09375 C 2.601562 -6.925781 2.125 -9.164062 2.125 -11.8125 C 2.125 -14.5 2.628906 -16.765625 3.640625 -18.609375 C 4.660156 -20.453125 6.035156 -21.828125 7.765625 -22.734375 C 9.492188 -23.640625 11.4375 -24.09375 13.59375 -24.09375 C 16.9375 -24.09375 19.5 -23.207031 21.28125 -21.4375 C 23.0625 -19.664062 23.953125 -17.066406 23.953125 -13.640625 C 23.953125 -12.390625 23.90625 -11.421875 23.8125 -10.734375 Z M 18.265625 -14.328125 C 18.210938 -16.117188 17.796875 -17.425781 17.015625 -18.25 C 16.234375 -19.070312 15.09375 -19.484375 13.59375 -19.484375 C 10.59375 -19.484375 8.828125 -17.765625 8.296875 -14.328125 Z M 18.265625 -14.328125 "/></g></g><g transform="translate(458.044556, 252.349133)"><g><path d="M 3.40625 0 L 3.40625 -23.640625 L 9.109375 -23.640625 L 9.109375 -20.171875 L 9.5625 -20.0625 C 11.03125 -22.75 13.414062 -24.09375 16.71875 -24.09375 C 19.445312 -24.09375 21.453125 -23.347656 22.734375 -21.859375 C 24.015625 -20.378906 24.65625 -18.21875 24.65625 -15.375 L 24.65625 0 L 18.71875 0 L 18.71875 -14.640625 C 18.71875 -16.210938 18.398438 -17.34375 17.765625 -18.03125 C 17.140625 -18.726562 16.132812 -19.078125 14.75 -19.078125 C 13.050781 -19.078125 11.722656 -18.523438 10.765625 -17.421875 C 9.816406 -16.328125 9.34375 -14.597656 9.34375 -12.234375 L 9.34375 0 Z M 3.40625 0 "/></g></g><g transform="translate(485.739832, 252.349133)"><g><path d="M 16.3125 -5.640625 L 17.859375 -1.25 C 17.210938 -0.71875 16.40625 -0.300781 15.4375 0 C 14.46875 0.300781 13.367188 0.453125 12.140625 0.453125 C 9.578125 0.453125 7.628906 -0.242188 6.296875 -1.640625 C 4.972656 -3.035156 4.3125 -5.0625 4.3125 -7.71875 L 4.3125 -18.953125 L 0.703125 -18.953125 L 0.703125 -23.671875 L 4.3125 -23.671875 L 4.3125 -28.28125 L 10.25 -29.25 L 10.25 -23.671875 L 16.953125 -23.671875 L 16.953125 -18.953125 L 10.25 -18.953125 L 10.25 -8.140625 C 10.25 -6.972656 10.488281 -6.117188 10.96875 -5.578125 C 11.457031 -5.046875 12.164062 -4.78125 13.09375 -4.78125 C 14.15625 -4.78125 15.078125 -5.066406 15.859375 -5.640625 Z M 16.3125 -5.640625 "/></g></g><g transform="translate(504.110459, 252.349133)"><g><path d="M 23.375 -10.484375 L 8.171875 -10.484375 C 8.335938 -8.421875 8.921875 -6.921875 9.921875 -5.984375 C 10.921875 -5.054688 12.285156 -4.59375 14.015625 -4.59375 C 15.378906 -4.59375 16.484375 -4.84375 17.328125 -5.34375 C 18.171875 -5.851562 18.847656 -6.625 19.359375 -7.65625 L 19.8125 -7.65625 L 23.75 -5.125 C 22.976562 -3.46875 21.8125 -2.125 20.25 -1.09375 C 18.695312 -0.0625 16.617188 0.453125 14.015625 0.453125 C 11.578125 0.453125 9.46875 -0.0078125 7.6875 -0.9375 C 5.90625 -1.875 4.53125 -3.257812 3.5625 -5.09375 C 2.601562 -6.925781 2.125 -9.164062 2.125 -11.8125 C 2.125 -14.5 2.628906 -16.765625 3.640625 -18.609375 C 4.660156 -20.453125 6.035156 -21.828125 7.765625 -22.734375 C 9.492188 -23.640625 11.4375 -24.09375 13.59375 -24.09375 C 16.9375 -24.09375 19.5 -23.207031 21.28125 -21.4375 C 23.0625 -19.664062 23.953125 -17.066406 23.953125 -13.640625 C 23.953125 -12.390625 23.90625 -11.421875 23.8125 -10.734375 Z M 18.265625 -14.328125 C 18.210938 -16.117188 17.796875 -17.425781 17.015625 -18.25 C 16.234375 -19.070312 15.09375 -19.484375 13.59375 -19.484375 C 10.59375 -19.484375 8.828125 -17.765625 8.296875 -14.328125 Z M 18.265625 -14.328125 "/></g></g><g transform="translate(529.812189, 252.349133)"><g><path d="M 3.40625 0 L 3.40625 -23.640625 L 9.171875 -23.640625 L 9.171875 -20.125 L 9.625 -20.046875 C 10.195312 -21.359375 10.945312 -22.320312 11.875 -22.9375 C 12.800781 -23.550781 13.929688 -23.859375 15.265625 -23.859375 C 16.609375 -23.859375 17.628906 -23.628906 18.328125 -23.171875 L 17.328125 -18.046875 L 16.875 -17.96875 C 16.488281 -18.125 16.113281 -18.238281 15.75 -18.3125 C 15.394531 -18.382812 14.960938 -18.421875 14.453125 -18.421875 C 12.796875 -18.421875 11.53125 -17.835938 10.65625 -16.671875 C 9.78125 -15.503906 9.34375 -13.632812 9.34375 -11.0625 L 9.34375 0 Z M 3.40625 0 "/></g></g><g transform="translate(548.354305, 252.349133)"><g/></g><g transform="translate(558.707879, 252.349133)"><g><path d="M 4.140625 0 L 4.140625 -18.953125 L 0.796875 -18.953125 L 0.796875 -23.671875 L 4.140625 -23.671875 C 3.890625 -24.671875 3.765625 -25.609375 3.765625 -26.484375 C 3.765625 -27.984375 4.109375 -29.265625 4.796875 -30.328125 C 5.484375 -31.390625 6.46875 -32.195312 7.75 -32.75 C 9.039062 -33.3125 10.570312 -33.59375 12.34375 -33.59375 C 14.957031 -33.59375 16.910156 -33.144531 18.203125 -32.25 L 16.8125 -27.875 L 16.359375 -27.78125 C 15.472656 -28.414062 14.335938 -28.734375 12.953125 -28.734375 C 11.878906 -28.734375 11.070312 -28.46875 10.53125 -27.9375 C 10 -27.414062 9.734375 -26.707031 9.734375 -25.8125 C 9.734375 -25.425781 9.757812 -25.070312 9.8125 -24.75 C 9.863281 -24.425781 9.953125 -24.066406 10.078125 -23.671875 L 16.828125 -23.671875 L 16.828125 -18.953125 L 10.078125 -18.953125 L 10.078125 0 Z M 4.140625 0 "/></g></g><g transform="translate(575.770913, 252.349133)"><g><path d="M 13.734375 0.453125 C 11.421875 0.453125 9.390625 -0.0195312 7.640625 -0.96875 C 5.890625 -1.925781 4.53125 -3.320312 3.5625 -5.15625 C 2.601562 -6.988281 2.125 -9.207031 2.125 -11.8125 C 2.125 -14.414062 2.601562 -16.640625 3.5625 -18.484375 C 4.53125 -20.328125 5.890625 -21.722656 7.640625 -22.671875 C 9.390625 -23.617188 11.421875 -24.09375 13.734375 -24.09375 C 16.054688 -24.09375 18.09375 -23.617188 19.84375 -22.671875 C 21.59375 -21.722656 22.953125 -20.328125 23.921875 -18.484375 C 24.898438 -16.640625 25.390625 -14.414062 25.390625 -11.8125 C 25.390625 -9.207031 24.898438 -6.988281 23.921875 -5.15625 C 22.953125 -3.320312 21.59375 -1.925781 19.84375 -0.96875 C 18.09375 -0.0195312 16.054688 0.453125 13.734375 0.453125 Z M 13.734375 -4.59375 C 17.410156 -4.59375 19.25 -7 19.25 -11.8125 C 19.25 -14.3125 18.773438 -16.144531 17.828125 -17.3125 C 16.890625 -18.476562 15.523438 -19.0625 13.734375 -19.0625 C 10.066406 -19.0625 8.234375 -16.644531 8.234375 -11.8125 C 8.234375 -7 10.066406 -4.59375 13.734375 -4.59375 Z M 13.734375 -4.59375 "/></g></g><g transform="translate(603.251828, 252.349133)"><g><path d="M 3.40625 0 L 3.40625 -23.640625 L 9.171875 -23.640625 L 9.171875 -20.125 L 9.625 -20.046875 C 10.195312 -21.359375 10.945312 -22.320312 11.875 -22.9375 C 12.800781 -23.550781 13.929688 -23.859375 15.265625 -23.859375 C 16.609375 -23.859375 17.628906 -23.628906 18.328125 -23.171875 L 17.328125 -18.046875 L 16.875 -17.96875 C 16.488281 -18.125 16.113281 -18.238281 15.75 -18.3125 C 15.394531 -18.382812 14.960938 -18.421875 14.453125 -18.421875 C 12.796875 -18.421875 11.53125 -17.835938 10.65625 -16.671875 C 9.78125 -15.503906 9.34375 -13.632812 9.34375 -11.0625 L 9.34375 0 Z M 3.40625 0 "/></g></g></g><g fill="#000000" fill-opacity="1"><g transform="translate(401.603643, 313.236771)"><g><path d="M 10.265625 -13.765625 L 10.265625 -5.1875 L 25.234375 -5.1875 L 25.234375 0 L 4.078125 0 L 4.078125 -31.34375 L 24.890625 -31.34375 L 24.890625 -26.15625 L 10.265625 -26.15625 L 10.265625 -18.828125 L 23.046875 -18.828125 L 23.046875 -13.765625 Z M 10.265625 -13.765625 "/></g></g><g transform="translate(428.548659, 313.236771)"><g><path d="M 3.40625 0 L 3.40625 -23.640625 L 9.109375 -23.640625 L 9.109375 -20.171875 L 9.5625 -20.0625 C 11.03125 -22.75 13.414062 -24.09375 16.71875 -24.09375 C 19.445312 -24.09375 21.453125 -23.347656 22.734375 -21.859375 C 24.015625 -20.378906 24.65625 -18.21875 24.65625 -15.375 L 24.65625 0 L 18.71875 0 L 18.71875 -14.640625 C 18.71875 -16.210938 18.398438 -17.34375 17.765625 -18.03125 C 17.140625 -18.726562 16.132812 -19.078125 14.75 -19.078125 C 13.050781 -19.078125 11.722656 -18.523438 10.765625 -17.421875 C 9.816406 -16.328125 9.34375 -14.597656 9.34375 -12.234375 L 9.34375 0 Z M 3.40625 0 "/></g></g><g transform="translate(456.243935, 313.236771)"><g><path d="M 16.3125 -5.640625 L 17.859375 -1.25 C 17.210938 -0.71875 16.40625 -0.300781 15.4375 0 C 14.46875 0.300781 13.367188 0.453125 12.140625 0.453125 C 9.578125 0.453125 7.628906 -0.242188 6.296875 -1.640625 C 4.972656 -3.035156 4.3125 -5.0625 4.3125 -7.71875 L 4.3125 -18.953125 L 0.703125 -18.953125 L 0.703125 -23.671875 L 4.3125 -23.671875 L 4.3125 -28.28125 L 10.25 -29.25 L 10.25 -23.671875 L 16.953125 -23.671875 L 16.953125 -18.953125 L 10.25 -18.953125 L 10.25 -8.140625 C 10.25 -6.972656 10.488281 -6.117188 10.96875 -5.578125 C 11.457031 -5.046875 12.164062 -4.78125 13.09375 -4.78125 C 14.15625 -4.78125 15.078125 -5.066406 15.859375 -5.640625 Z M 16.3125 -5.640625 "/></g></g><g transform="translate(474.614562, 313.236771)"><g><path d="M 3.40625 0 L 3.40625 -23.640625 L 9.171875 -23.640625 L 9.171875 -20.125 L 9.625 -20.046875 C 10.195312 -21.359375 10.945312 -22.320312 11.875 -22.9375 C 12.800781 -23.550781 13.929688 -23.859375 15.265625 -23.859375 C 16.609375 -23.859375 17.628906 -23.628906 18.328125 -23.171875 L 17.328125 -18.046875 L 16.875 -17.96875 C 16.488281 -18.125 16.113281 -18.238281 15.75 -18.3125 C 15.394531 -18.382812 14.960938 -18.421875 14.453125 -18.421875 C 12.796875 -18.421875 11.53125 -17.835938 10.65625 -16.671875 C 9.78125 -15.503906 9.34375 -13.632812 9.34375 -11.0625 L 9.34375 0 Z M 3.40625 0 "/></g></g><g transform="translate(493.156678, 313.236771)"><g><path d="M 23.375 -10.484375 L 8.171875 -10.484375 C 8.335938 -8.421875 8.921875 -6.921875 9.921875 -5.984375 C 10.921875 -5.054688 12.285156 -4.59375 14.015625 -4.59375 C 15.378906 -4.59375 16.484375 -4.84375 17.328125 -5.34375 C 18.171875 -5.851562 18.847656 -6.625 19.359375 -7.65625 L 19.8125 -7.65625 L 23.75 -5.125 C 22.976562 -3.46875 21.8125 -2.125 20.25 -1.09375 C 18.695312 -0.0625 16.617188 0.453125 14.015625 0.453125 C 11.578125 0.453125 9.46875 -0.0078125 7.6875 -0.9375 C 5.90625 -1.875 4.53125 -3.257812 3.5625 -5.09375 C 2.601562 -6.925781 2.125 -9.164062 2.125 -11.8125 C 2.125 -14.5 2.628906 -16.765625 3.640625 -18.609375 C 4.660156 -20.453125 6.035156 -21.828125 7.765625 -22.734375 C 9.492188 -23.640625 11.4375 -24.09375 13.59375 -24.09375 C 16.9375 -24.09375 19.5 -23.207031 21.28125 -21.4375 C 23.0625 -19.664062 23.953125 -17.066406 23.953125 -13.640625 C 23.953125 -12.390625 23.90625 -11.421875 23.8125 -10.734375 Z M 18.265625 -14.328125 C 18.210938 -16.117188 17.796875 -17.425781 17.015625 -18.25 C 16.234375 -19.070312 15.09375 -19.484375 13.59375 -19.484375 C 10.59375 -19.484375 8.828125 -17.765625 8.296875 -14.328125 Z M 18.265625 -14.328125 "/></g></g><g transform="translate(518.858408, 313.236771)"><g><path d="M 3.40625 9.578125 L 3.40625 -23.640625 L 9.34375 -23.640625 L 9.34375 -20.5625 L 9.796875 -20.46875 C 10.492188 -21.675781 11.425781 -22.582031 12.59375 -23.1875 C 13.769531 -23.789062 15.144531 -24.09375 16.71875 -24.09375 C 18.625 -24.09375 20.285156 -23.640625 21.703125 -22.734375 C 23.128906 -21.835938 24.238281 -20.472656 25.03125 -18.640625 C 25.820312 -16.804688 26.21875 -14.53125 26.21875 -11.8125 C 26.21875 -9.113281 25.800781 -6.847656 24.96875 -5.015625 C 24.132812 -3.179688 22.972656 -1.8125 21.484375 -0.90625 C 19.992188 0 18.28125 0.453125 16.34375 0.453125 C 14.863281 0.453125 13.585938 0.207031 12.515625 -0.28125 C 11.441406 -0.78125 10.535156 -1.550781 9.796875 -2.59375 L 9.34375 -2.515625 L 9.34375 9.578125 Z M 14.6875 -4.59375 C 16.457031 -4.59375 17.800781 -5.171875 18.71875 -6.328125 C 19.632812 -7.484375 20.09375 -9.3125 20.09375 -11.8125 C 20.09375 -14.3125 19.632812 -16.144531 18.71875 -17.3125 C 17.800781 -18.476562 16.457031 -19.0625 14.6875 -19.0625 C 13.03125 -19.0625 11.710938 -18.457031 10.734375 -17.25 C 9.765625 -16.050781 9.28125 -14.238281 9.28125 -11.8125 C 9.28125 -9.394531 9.765625 -7.585938 10.734375 -6.390625 C 11.710938 -5.191406 13.03125 -4.59375 14.6875 -4.59375 Z M 14.6875 -4.59375 "/></g></g><g transform="translate(547.175326, 313.236771)"><g><path d="M 3.40625 0 L 3.40625 -23.640625 L 9.171875 -23.640625 L 9.171875 -20.125 L 9.625 -20.046875 C 10.195312 -21.359375 10.945312 -22.320312 11.875 -22.9375 C 12.800781 -23.550781 13.929688 -23.859375 15.265625 -23.859375 C 16.609375 -23.859375 17.628906 -23.628906 18.328125 -23.171875 L 17.328125 -18.046875 L 16.875 -17.96875 C 16.488281 -18.125 16.113281 -18.238281 15.75 -18.3125 C 15.394531 -18.382812 14.960938 -18.421875 14.453125 -18.421875 C 12.796875 -18.421875 11.53125 -17.835938 10.65625 -16.671875 C 9.78125 -15.503906 9.34375 -13.632812 9.34375 -11.0625 L 9.34375 0 Z M 3.40625 0 "/></g></g><g transform="translate(565.717442, 313.236771)"><g><path d="M 23.375 -10.484375 L 8.171875 -10.484375 C 8.335938 -8.421875 8.921875 -6.921875 9.921875 -5.984375 C 10.921875 -5.054688 12.285156 -4.59375 14.015625 -4.59375 C 15.378906 -4.59375 16.484375 -4.84375 17.328125 -5.34375 C 18.171875 -5.851562 18.847656 -6.625 19.359375 -7.65625 L 19.8125 -7.65625 L 23.75 -5.125 C 22.976562 -3.46875 21.8125 -2.125 20.25 -1.09375 C 18.695312 -0.0625 16.617188 0.453125 14.015625 0.453125 C 11.578125 0.453125 9.46875 -0.0078125 7.6875 -0.9375 C 5.90625 -1.875 4.53125 -3.257812 3.5625 -5.09375 C 2.601562 -6.925781 2.125 -9.164062 2.125 -11.8125 C 2.125 -14.5 2.628906 -16.765625 3.640625 -18.609375 C 4.660156 -20.453125 6.035156 -21.828125 7.765625 -22.734375 C 9.492188 -23.640625 11.4375 -24.09375 13.59375 -24.09375 C 16.9375 -24.09375 19.5 -23.207031 21.28125 -21.4375 C 23.0625 -19.664062 23.953125 -17.066406 23.953125 -13.640625 C 23.953125 -12.390625 23.90625 -11.421875 23.8125 -10.734375 Z M 18.265625 -14.328125 C 18.210938 -16.117188 17.796875 -17.425781 17.015625 -18.25 C 16.234375 -19.070312 15.09375 -19.484375 13.59375 -19.484375 C 10.59375 -19.484375 8.828125 -17.765625 8.296875 -14.328125 Z M 18.265625 -14.328125 "/></g></g><g transform="translate(591.419172, 313.236771)"><g><path d="M 3.40625 0 L 3.40625 -23.640625 L 9.109375 -23.640625 L 9.109375 -20.171875 L 9.5625 -20.0625 C 11.03125 -22.75 13.414062 -24.09375 16.71875 -24.09375 C 19.445312 -24.09375 21.453125 -23.347656 22.734375 -21.859375 C 24.015625 -20.378906 24.65625 -18.21875 24.65625 -15.375 L 24.65625 0 L 18.71875 0 L 18.71875 -14.640625 C 18.71875 -16.210938 18.398438 -17.34375 17.765625 -18.03125 C 17.140625 -18.726562 16.132812 -19.078125 14.75 -19.078125 C 13.050781 -19.078125 11.722656 -18.523438 10.765625 -17.421875 C 9.816406 -16.328125 9.34375 -14.597656 9.34375 -12.234375 L 9.34375 0 Z M 3.40625 0 "/></g></g><g transform="translate(619.114448, 313.236771)"><g><path d="M 23.375 -10.484375 L 8.171875 -10.484375 C 8.335938 -8.421875 8.921875 -6.921875 9.921875 -5.984375 C 10.921875 -5.054688 12.285156 -4.59375 14.015625 -4.59375 C 15.378906 -4.59375 16.484375 -4.84375 17.328125 -5.34375 C 18.171875 -5.851562 18.847656 -6.625 19.359375 -7.65625 L 19.8125 -7.65625 L 23.75 -5.125 C 22.976562 -3.46875 21.8125 -2.125 20.25 -1.09375 C 18.695312 -0.0625 16.617188 0.453125 14.015625 0.453125 C 11.578125 0.453125 9.46875 -0.0078125 7.6875 -0.9375 C 5.90625 -1.875 4.53125 -3.257812 3.5625 -5.09375 C 2.601562 -6.925781 2.125 -9.164062 2.125 -11.8125 C 2.125 -14.5 2.628906 -16.765625 3.640625 -18.609375 C 4.660156 -20.453125 6.035156 -21.828125 7.765625 -22.734375 C 9.492188 -23.640625 11.4375 -24.09375 13.59375 -24.09375 C 16.9375 -24.09375 19.5 -23.207031 21.28125 -21.4375 C 23.0625 -19.664062 23.953125 -17.066406 23.953125 -13.640625 C 23.953125 -12.390625 23.90625 -11.421875 23.8125 -10.734375 Z M 18.265625 -14.328125 C 18.210938 -16.117188 17.796875 -17.425781 17.015625 -18.25 C 16.234375 -19.070312 15.09375 -19.484375 13.59375 -19.484375 C 10.59375 -19.484375 8.828125 -17.765625 8.296875 -14.328125 Z M 18.265625 -14.328125 "/></g></g><g transform="translate(644.816178, 313.236771)"><g><path d="M 10.828125 0.453125 C 8.171875 0.453125 6.207031 -0.269531 4.9375 -1.71875 C 3.675781 -3.175781 3.046875 -5.257812 3.046875 -7.96875 L 3.046875 -23.640625 L 8.984375 -23.640625 L 8.984375 -8.71875 C 8.984375 -7.28125 9.289062 -6.226562 9.90625 -5.5625 C 10.53125 -4.894531 11.492188 -4.5625 12.796875 -4.5625 C 14.441406 -4.5625 15.722656 -5.097656 16.640625 -6.171875 C 17.554688 -7.253906 18.015625 -8.957031 18.015625 -11.28125 L 18.015625 -23.640625 L 23.953125 -23.640625 L 23.953125 0 L 18.25 0 L 18.25 -3.46875 L 17.796875 -3.578125 C 17.035156 -2.222656 16.109375 -1.210938 15.015625 -0.546875 C 13.921875 0.117188 12.523438 0.453125 10.828125 0.453125 Z M 10.828125 0.453125 "/></g></g><g transform="translate(672.168478, 313.236771)"><g><path d="M 3.40625 0 L 3.40625 -23.640625 L 9.171875 -23.640625 L 9.171875 -20.125 L 9.625 -20.046875 C 10.195312 -21.359375 10.945312 -22.320312 11.875 -22.9375 C 12.800781 -23.550781 13.929688 -23.859375 15.265625 -23.859375 C 16.609375 -23.859375 17.628906 -23.628906 18.328125 -23.171875 L 17.328125 -18.046875 L 16.875 -17.96875 C 16.488281 -18.125 16.113281 -18.238281 15.75 -18.3125 C 15.394531 -18.382812 14.960938 -18.421875 14.453125 -18.421875 C 12.796875 -18.421875 11.53125 -17.835938 10.65625 -16.671875 C 9.78125 -15.503906 9.34375 -13.632812 9.34375 -11.0625 L 9.34375 0 Z M 3.40625 0 "/></g></g><g transform="translate(690.710593, 313.236771)"><g><path d="M 11.0625 0.453125 C 9.445312 0.453125 7.96875 0.265625 6.625 -0.109375 C 5.28125 -0.492188 4.132812 -1.019531 3.1875 -1.6875 C 2.238281 -2.351562 1.535156 -3.113281 1.078125 -3.96875 L 4.375 -7.53125 L 4.828125 -7.53125 C 5.609375 -6.46875 6.535156 -5.671875 7.609375 -5.140625 C 8.679688 -4.617188 9.847656 -4.359375 11.109375 -4.359375 C 12.265625 -4.359375 13.132812 -4.5625 13.71875 -4.96875 C 14.300781 -5.382812 14.59375 -5.976562 14.59375 -6.75 C 14.59375 -7.351562 14.378906 -7.859375 13.953125 -8.265625 C 13.535156 -8.671875 12.859375 -8.988281 11.921875 -9.21875 L 8.796875 -9.96875 C 6.453125 -10.53125 4.738281 -11.382812 3.65625 -12.53125 C 2.570312 -13.675781 2.03125 -15.140625 2.03125 -16.921875 C 2.03125 -18.390625 2.40625 -19.664062 3.15625 -20.75 C 3.90625 -21.832031 4.960938 -22.660156 6.328125 -23.234375 C 7.691406 -23.804688 9.285156 -24.09375 11.109375 -24.09375 C 13.234375 -24.09375 14.992188 -23.785156 16.390625 -23.171875 C 17.796875 -22.554688 18.894531 -21.734375 19.6875 -20.703125 L 16.5 -17.28125 L 16.078125 -17.28125 C 15.421875 -18.019531 14.679688 -18.5625 13.859375 -18.90625 C 13.035156 -19.25 12.117188 -19.421875 11.109375 -19.421875 C 8.765625 -19.421875 7.59375 -18.691406 7.59375 -17.234375 C 7.59375 -16.617188 7.804688 -16.117188 8.234375 -15.734375 C 8.671875 -15.347656 9.441406 -15.035156 10.546875 -14.796875 L 13.46875 -14.15625 C 15.863281 -13.632812 17.613281 -12.804688 18.71875 -11.671875 C 19.832031 -10.535156 20.390625 -9.007812 20.390625 -7.09375 C 20.390625 -5.59375 20.015625 -4.269531 19.265625 -3.125 C 18.523438 -1.988281 17.453125 -1.109375 16.046875 -0.484375 C 14.648438 0.140625 12.988281 0.453125 11.0625 0.453125 Z M 11.0625 0.453125 "/></g></g><g transform="translate(712.510976, 313.236771)"><g><path d="M 3.40625 0 L 3.40625 -33.140625 L 9.34375 -33.140625 L 9.34375 -20.5625 L 9.796875 -20.46875 C 10.585938 -21.625 11.550781 -22.515625 12.6875 -23.140625 C 13.832031 -23.773438 15.210938 -24.09375 16.828125 -24.09375 C 22.046875 -24.09375 24.65625 -21.132812 24.65625 -15.21875 L 24.65625 0 L 18.71875 0 L 18.71875 -14.46875 C 18.71875 -16.082031 18.394531 -17.253906 17.75 -17.984375 C 17.101562 -18.710938 16.101562 -19.078125 14.75 -19.078125 C 13.09375 -19.078125 11.773438 -18.519531 10.796875 -17.40625 C 9.828125 -16.300781 9.34375 -14.578125 9.34375 -12.234375 L 9.34375 0 Z M 3.40625 0 "/></g></g><g transform="translate(740.206252, 313.236771)"><g><path d="M 6.375 -26.484375 C 5.300781 -26.484375 4.425781 -26.804688 3.75 -27.453125 C 3.082031 -28.097656 2.75 -28.9375 2.75 -29.96875 C 2.75 -30.988281 3.082031 -31.820312 3.75 -32.46875 C 4.425781 -33.113281 5.300781 -33.4375 6.375 -33.4375 C 7.082031 -33.4375 7.710938 -33.285156 8.265625 -32.984375 C 8.828125 -32.691406 9.257812 -32.285156 9.5625 -31.765625 C 9.875 -31.242188 10.03125 -30.644531 10.03125 -29.96875 C 10.03125 -29.300781 9.875 -28.703125 9.5625 -28.171875 C 9.257812 -27.640625 8.828125 -27.222656 8.265625 -26.921875 C 7.710938 -26.628906 7.082031 -26.484375 6.375 -26.484375 Z M 3.40625 0 L 3.40625 -23.640625 L 9.34375 -23.640625 L 9.34375 0 Z M 3.40625 0 "/></g></g><g transform="translate(752.939219, 313.236771)"><g><path d="M 3.40625 9.578125 L 3.40625 -23.640625 L 9.34375 -23.640625 L 9.34375 -20.5625 L 9.796875 -20.46875 C 10.492188 -21.675781 11.425781 -22.582031 12.59375 -23.1875 C 13.769531 -23.789062 15.144531 -24.09375 16.71875 -24.09375 C 18.625 -24.09375 20.285156 -23.640625 21.703125 -22.734375 C 23.128906 -21.835938 24.238281 -20.472656 25.03125 -18.640625 C 25.820312 -16.804688 26.21875 -14.53125 26.21875 -11.8125 C 26.21875 -9.113281 25.800781 -6.847656 24.96875 -5.015625 C 24.132812 -3.179688 22.972656 -1.8125 21.484375 -0.90625 C 19.992188 0 18.28125 0.453125 16.34375 0.453125 C 14.863281 0.453125 13.585938 0.207031 12.515625 -0.28125 C 11.441406 -0.78125 10.535156 -1.550781 9.796875 -2.59375 L 9.34375 -2.515625 L 9.34375 9.578125 Z M 14.6875 -4.59375 C 16.457031 -4.59375 17.800781 -5.171875 18.71875 -6.328125 C 19.632812 -7.484375 20.09375 -9.3125 20.09375 -11.8125 C 20.09375 -14.3125 19.632812 -16.144531 18.71875 -17.3125 C 17.800781 -18.476562 16.457031 -19.0625 14.6875 -19.0625 C 13.03125 -19.0625 11.710938 -18.457031 10.734375 -17.25 C 9.765625 -16.050781 9.28125 -14.238281 9.28125 -11.8125 C 9.28125 -9.394531 9.765625 -7.585938 10.734375 -6.390625 C 11.710938 -5.191406 13.03125 -4.59375 14.6875 -4.59375 Z M 14.6875 -4.59375 "/></g></g><g transform="translate(781.256138, 313.236771)"><g/></g><g transform="translate(791.609712, 313.236771)"><g><path d="M 12.8125 0.453125 C 10.539062 0.453125 8.554688 0.0664062 6.859375 -0.703125 C 5.160156 -1.472656 3.847656 -2.578125 2.921875 -4.015625 C 2.003906 -5.453125 1.546875 -7.128906 1.546875 -9.046875 C 1.546875 -11.109375 2.054688 -12.820312 3.078125 -14.1875 C 4.109375 -15.550781 5.660156 -16.664062 7.734375 -17.53125 L 7.78125 -17.984375 C 6.84375 -19.140625 6.164062 -20.207031 5.75 -21.1875 C 5.332031 -22.164062 5.125 -23.242188 5.125 -24.421875 C 5.125 -25.859375 5.46875 -27.132812 6.15625 -28.25 C 6.84375 -29.363281 7.835938 -30.234375 9.140625 -30.859375 C 10.453125 -31.484375 12.007812 -31.796875 13.8125 -31.796875 C 15.519531 -31.796875 16.984375 -31.507812 18.203125 -30.9375 C 19.429688 -30.363281 20.363281 -29.566406 21 -28.546875 C 21.644531 -27.535156 21.96875 -26.367188 21.96875 -25.046875 C 21.96875 -23.253906 21.4375 -21.703125 20.375 -20.390625 C 19.3125 -19.078125 17.660156 -17.988281 15.421875 -17.125 L 15.375 -16.671875 L 21.15625 -9.03125 C 21.5 -9.769531 21.738281 -10.617188 21.875 -11.578125 C 22.007812 -12.546875 22.078125 -13.640625 22.078125 -14.859375 L 22.0625 -15.953125 L 27.078125 -15.953125 C 27.078125 -11.546875 26.210938 -7.988281 24.484375 -5.28125 C 24.835938 -4.988281 25.144531 -4.785156 25.40625 -4.671875 C 25.675781 -4.554688 25.96875 -4.5 26.28125 -4.5 C 26.582031 -4.5 26.828125 -4.515625 27.015625 -4.546875 C 27.203125 -4.578125 27.410156 -4.625 27.640625 -4.6875 L 27.953125 -4.609375 L 28.703125 -0.296875 C 28.429688 -0.109375 28.046875 0.03125 27.546875 0.125 C 27.046875 0.226562 26.488281 0.28125 25.875 0.28125 C 24.832031 0.28125 23.914062 0.109375 23.125 -0.234375 C 22.332031 -0.578125 21.578125 -1.109375 20.859375 -1.828125 L 20.40625 -1.828125 C 18.632812 -0.304688 16.101562 0.453125 12.8125 0.453125 Z M 12.796875 -20.09375 C 14.128906 -20.75 15.09375 -21.414062 15.6875 -22.09375 C 16.289062 -22.769531 16.59375 -23.617188 16.59375 -24.640625 C 16.59375 -25.523438 16.332031 -26.207031 15.8125 -26.6875 C 15.300781 -27.164062 14.609375 -27.40625 13.734375 -27.40625 C 12.847656 -27.40625 12.140625 -27.144531 11.609375 -26.625 C 11.078125 -26.113281 10.8125 -25.40625 10.8125 -24.5 C 10.8125 -23.8125 10.953125 -23.164062 11.234375 -22.5625 C 11.515625 -21.957031 12.035156 -21.132812 12.796875 -20.09375 Z M 13.578125 -4.65625 C 14.941406 -4.65625 16.113281 -4.921875 17.09375 -5.453125 L 10.125 -14.328125 C 9.289062 -13.773438 8.675781 -13.128906 8.28125 -12.390625 C 7.894531 -11.660156 7.703125 -10.796875 7.703125 -9.796875 C 7.703125 -8.765625 7.941406 -7.859375 8.421875 -7.078125 C 8.898438 -6.304688 9.582031 -5.707031 10.46875 -5.28125 C 11.351562 -4.863281 12.390625 -4.65625 13.578125 -4.65625 Z M 13.578125 -4.65625 "/></g></g></g><g fill="#000000" fill-opacity="1"><g transform="translate(401.603643, 374.12441)"><g><path d="M 10.265625 0 L 4.078125 0 L 4.078125 -31.34375 L 10.265625 -31.34375 Z M 10.265625 0 "/></g></g><g transform="translate(415.965744, 374.12441)"><g><path d="M 3.40625 0 L 3.40625 -23.640625 L 9.109375 -23.640625 L 9.109375 -20.171875 L 9.5625 -20.0625 C 11.03125 -22.75 13.414062 -24.09375 16.71875 -24.09375 C 19.445312 -24.09375 21.453125 -23.347656 22.734375 -21.859375 C 24.015625 -20.378906 24.65625 -18.21875 24.65625 -15.375 L 24.65625 0 L 18.71875 0 L 18.71875 -14.640625 C 18.71875 -16.210938 18.398438 -17.34375 17.765625 -18.03125 C 17.140625 -18.726562 16.132812 -19.078125 14.75 -19.078125 C 13.050781 -19.078125 11.722656 -18.523438 10.765625 -17.421875 C 9.816406 -16.328125 9.34375 -14.597656 9.34375 -12.234375 L 9.34375 0 Z M 3.40625 0 "/></g></g><g transform="translate(443.661019, 374.12441)"><g><path d="M 3.40625 0 L 3.40625 -23.640625 L 9.109375 -23.640625 L 9.109375 -20.171875 L 9.5625 -20.0625 C 11.03125 -22.75 13.414062 -24.09375 16.71875 -24.09375 C 19.445312 -24.09375 21.453125 -23.347656 22.734375 -21.859375 C 24.015625 -20.378906 24.65625 -18.21875 24.65625 -15.375 L 24.65625 0 L 18.71875 0 L 18.71875 -14.640625 C 18.71875 -16.210938 18.398438 -17.34375 17.765625 -18.03125 C 17.140625 -18.726562 16.132812 -19.078125 14.75 -19.078125 C 13.050781 -19.078125 11.722656 -18.523438 10.765625 -17.421875 C 9.816406 -16.328125 9.34375 -14.597656 9.34375 -12.234375 L 9.34375 0 Z M 3.40625 0 "/></g></g><g transform="translate(471.356295, 374.12441)"><g><path d="M 13.734375 0.453125 C 11.421875 0.453125 9.390625 -0.0195312 7.640625 -0.96875 C 5.890625 -1.925781 4.53125 -3.320312 3.5625 -5.15625 C 2.601562 -6.988281 2.125 -9.207031 2.125 -11.8125 C 2.125 -14.414062 2.601562 -16.640625 3.5625 -18.484375 C 4.53125 -20.328125 5.890625 -21.722656 7.640625 -22.671875 C 9.390625 -23.617188 11.421875 -24.09375 13.734375 -24.09375 C 16.054688 -24.09375 18.09375 -23.617188 19.84375 -22.671875 C 21.59375 -21.722656 22.953125 -20.328125 23.921875 -18.484375 C 24.898438 -16.640625 25.390625 -14.414062 25.390625 -11.8125 C 25.390625 -9.207031 24.898438 -6.988281 23.921875 -5.15625 C 22.953125 -3.320312 21.59375 -1.925781 19.84375 -0.96875 C 18.09375 -0.0195312 16.054688 0.453125 13.734375 0.453125 Z M 13.734375 -4.59375 C 17.410156 -4.59375 19.25 -7 19.25 -11.8125 C 19.25 -14.3125 18.773438 -16.144531 17.828125 -17.3125 C 16.890625 -18.476562 15.523438 -19.0625 13.734375 -19.0625 C 10.066406 -19.0625 8.234375 -16.644531 8.234375 -11.8125 C 8.234375 -7 10.066406 -4.59375 13.734375 -4.59375 Z M 13.734375 -4.59375 "/></g></g><g transform="translate(498.837211, 374.12441)"><g><path d="M 16.265625 0 L 9.203125 0 L 0.453125 -23.640625 L 6.671875 -23.640625 L 12.546875 -6.796875 L 13.03125 -6.796875 L 18.9375 -23.640625 L 25 -23.640625 Z M 16.265625 0 "/></g></g><g transform="translate(524.260273, 374.12441)"><g><path d="M 9.21875 0.453125 C 7.707031 0.453125 6.394531 0.175781 5.28125 -0.375 C 4.164062 -0.9375 3.304688 -1.753906 2.703125 -2.828125 C 2.097656 -3.910156 1.796875 -5.210938 1.796875 -6.734375 C 1.796875 -8.128906 2.097656 -9.300781 2.703125 -10.25 C 3.304688 -11.207031 4.234375 -11.988281 5.484375 -12.59375 C 6.742188 -13.195312 8.390625 -13.664062 10.421875 -14 C 11.835938 -14.226562 12.910156 -14.476562 13.640625 -14.75 C 14.378906 -15.019531 14.875 -15.328125 15.125 -15.671875 C 15.382812 -16.015625 15.515625 -16.453125 15.515625 -16.984375 C 15.515625 -17.734375 15.25 -18.304688 14.71875 -18.703125 C 14.195312 -19.109375 13.320312 -19.3125 12.09375 -19.3125 C 10.78125 -19.3125 9.53125 -19.019531 8.34375 -18.4375 C 7.15625 -17.851562 6.125 -17.082031 5.25 -16.125 L 4.828125 -16.125 L 2.34375 -19.875 C 3.539062 -21.207031 5.003906 -22.242188 6.734375 -22.984375 C 8.460938 -23.722656 10.347656 -24.09375 12.390625 -24.09375 C 15.523438 -24.09375 17.789062 -23.425781 19.1875 -22.09375 C 20.582031 -20.769531 21.28125 -18.882812 21.28125 -16.4375 L 21.28125 -6.171875 C 21.28125 -5.117188 21.75 -4.59375 22.6875 -4.59375 C 23.039062 -4.59375 23.390625 -4.65625 23.734375 -4.78125 L 24.03125 -4.6875 L 24.46875 -0.5625 C 24.132812 -0.34375 23.671875 -0.164062 23.078125 -0.03125 C 22.492188 0.101562 21.851562 0.171875 21.15625 0.171875 C 19.738281 0.171875 18.632812 -0.0976562 17.84375 -0.640625 C 17.050781 -1.179688 16.484375 -2.03125 16.140625 -3.1875 L 15.6875 -3.234375 C 14.53125 -0.773438 12.375 0.453125 9.21875 0.453125 Z M 11.109375 -3.984375 C 12.472656 -3.984375 13.566406 -4.441406 14.390625 -5.359375 C 15.210938 -6.285156 15.625 -7.570312 15.625 -9.21875 L 15.625 -11.625 L 15.21875 -11.703125 C 14.863281 -11.421875 14.394531 -11.179688 13.8125 -10.984375 C 13.238281 -10.796875 12.40625 -10.609375 11.3125 -10.421875 C 10.03125 -10.203125 9.109375 -9.832031 8.546875 -9.3125 C 7.984375 -8.789062 7.703125 -8.050781 7.703125 -7.09375 C 7.703125 -6.082031 8 -5.3125 8.59375 -4.78125 C 9.195312 -4.25 10.035156 -3.984375 11.109375 -3.984375 Z M 11.109375 -3.984375 "/></g></g><g transform="translate(549.190308, 374.12441)"><g><path d="M 16.3125 -5.640625 L 17.859375 -1.25 C 17.210938 -0.71875 16.40625 -0.300781 15.4375 0 C 14.46875 0.300781 13.367188 0.453125 12.140625 0.453125 C 9.578125 0.453125 7.628906 -0.242188 6.296875 -1.640625 C 4.972656 -3.035156 4.3125 -5.0625 4.3125 -7.71875 L 4.3125 -18.953125 L 0.703125 -18.953125 L 0.703125 -23.671875 L 4.3125 -23.671875 L 4.3125 -28.28125 L 10.25 -29.25 L 10.25 -23.671875 L 16.953125 -23.671875 L 16.953125 -18.953125 L 10.25 -18.953125 L 10.25 -8.140625 C 10.25 -6.972656 10.488281 -6.117188 10.96875 -5.578125 C 11.457031 -5.046875 12.164062 -4.78125 13.09375 -4.78125 C 14.15625 -4.78125 15.078125 -5.066406 15.859375 -5.640625 Z M 16.3125 -5.640625 "/></g></g><g transform="translate(567.560936, 374.12441)"><g><path d="M 6.375 -26.484375 C 5.300781 -26.484375 4.425781 -26.804688 3.75 -27.453125 C 3.082031 -28.097656 2.75 -28.9375 2.75 -29.96875 C 2.75 -30.988281 3.082031 -31.820312 3.75 -32.46875 C 4.425781 -33.113281 5.300781 -33.4375 6.375 -33.4375 C 7.082031 -33.4375 7.710938 -33.285156 8.265625 -32.984375 C 8.828125 -32.691406 9.257812 -32.285156 9.5625 -31.765625 C 9.875 -31.242188 10.03125 -30.644531 10.03125 -29.96875 C 10.03125 -29.300781 9.875 -28.703125 9.5625 -28.171875 C 9.257812 -27.640625 8.828125 -27.222656 8.265625 -26.921875 C 7.710938 -26.628906 7.082031 -26.484375 6.375 -26.484375 Z M 3.40625 0 L 3.40625 -23.640625 L 9.34375 -23.640625 L 9.34375 0 Z M 3.40625 0 "/></g></g><g transform="translate(580.293903, 374.12441)"><g><path d="M 13.734375 0.453125 C 11.421875 0.453125 9.390625 -0.0195312 7.640625 -0.96875 C 5.890625 -1.925781 4.53125 -3.320312 3.5625 -5.15625 C 2.601562 -6.988281 2.125 -9.207031 2.125 -11.8125 C 2.125 -14.414062 2.601562 -16.640625 3.5625 -18.484375 C 4.53125 -20.328125 5.890625 -21.722656 7.640625 -22.671875 C 9.390625 -23.617188 11.421875 -24.09375 13.734375 -24.09375 C 16.054688 -24.09375 18.09375 -23.617188 19.84375 -22.671875 C 21.59375 -21.722656 22.953125 -20.328125 23.921875 -18.484375 C 24.898438 -16.640625 25.390625 -14.414062 25.390625 -11.8125 C 25.390625 -9.207031 24.898438 -6.988281 23.921875 -5.15625 C 22.953125 -3.320312 21.59375 -1.925781 19.84375 -0.96875 C 18.09375 -0.0195312 16.054688 0.453125 13.734375 0.453125 Z M 13.734375 -4.59375 C 17.410156 -4.59375 19.25 -7 19.25 -11.8125 C 19.25 -14.3125 18.773438 -16.144531 17.828125 -17.3125 C 16.890625 -18.476562 15.523438 -19.0625 13.734375 -19.0625 C 10.066406 -19.0625 8.234375 -16.644531 8.234375 -11.8125 C 8.234375 -7 10.066406 -4.59375 13.734375 -4.59375 Z M 13.734375 -4.59375 "/></g></g><g transform="translate(607.774818, 374.12441)"><g><path d="M 3.40625 0 L 3.40625 -23.640625 L 9.109375 -23.640625 L 9.109375 -20.171875 L 9.5625 -20.0625 C 11.03125 -22.75 13.414062 -24.09375 16.71875 -24.09375 C 19.445312 -24.09375 21.453125 -23.347656 22.734375 -21.859375 C 24.015625 -20.378906 24.65625 -18.21875 24.65625 -15.375 L 24.65625 0 L 18.71875 0 L 18.71875 -14.640625 C 18.71875 -16.210938 18.398438 -17.34375 17.765625 -18.03125 C 17.140625 -18.726562 16.132812 -19.078125 14.75 -19.078125 C 13.050781 -19.078125 11.722656 -18.523438 10.765625 -17.421875 C 9.816406 -16.328125 9.34375 -14.597656 9.34375 -12.234375 L 9.34375 0 Z M 3.40625 0 "/></g></g></g></svg>