<?xml version="1.0" standalone="no"?>
<!DOCTYPE svg PUBLIC "-//W3C//DTD SVG 1.1//EN" "http://www.w3.org/Graphics/SVG/1.1/DTD/svg11.dtd">
<svg xmlns="http://www.w3.org/2000/svg" xmlns:xlink="http://www.w3.org/1999/xlink" version="1.1" id="UMES_x5F_SPOT_COLOR" x="0px" y="0px" viewBox="0 0 576 288" style="enable-background:new 0 0 576 288;" xml:space="preserve" width="576" height="288">
<style type="text/css">
	.st0{fill:#898A8D;}
	.st1{fill:#D9D8D6;}
	.st2{fill:#691C32;}
</style>
<g>
	<g id="TYPE_00000084521499785055923080000004533689303111126447_">
		<g>
			<path class="st0" d="M42.8,201.45c1.84-0.32,4.67-0.32,6.5,0v15.04c0,8.02-4.07,11.49-11.05,11.49     c-6.98,0-11.05-3.47-11.05-11.49v-15.04c1.84-0.32,4.67-0.32,6.5,0v16.04c0,2.99,1.56,5.19,4.55,5.19s4.55-2.19,4.55-5.19V201.45     z"/>
			<path class="st0" d="M78.71,227.39c-1.84,0.32-3.15,0.32-4.99,0l-12.09-15.2v15.2c-1.84,0.32-4.55,0.32-6.38,0v-25.94     c1.84-0.32,3.15-0.32,4.99,0l12.09,15.2v-15.2c1.84-0.32,4.55-0.32,6.38,0V227.39z"/>
			<path class="st0" d="M91.16,227.39c-1.84,0.32-4.55,0.32-6.38,0v-25.94c1.84-0.32,4.55-0.32,6.38,0V227.39z"/>
			<path class="st0" d="M115.18,201.45c1.84-0.32,4.75-0.32,6.58,0l-10.33,25.94c-1.84,0.32-3.43,0.32-5.27,0l-10.33-25.94     c1.84-0.32,4.75-0.32,6.58,0l6.38,16.4L115.18,201.45z"/>
			<path class="st0" d="M144.51,222.08c0.32,1.84,0.32,3.47,0,5.31h-18.08v-25.94h18.08c0.32,1.84,0.32,3.47,0,5.31h-11.69v4.87     h10.33c0.32,1.84,0.32,3.47,0,5.31h-10.33v5.15H144.51z"/>
			<path class="st0" d="M159.91,201.45c5.79,0,9.78,3.47,9.78,8.58c0,3.51-1.88,6.26-4.95,7.62l6.3,9.74     c-1.84,0.32-5.11,0.32-6.94,0l-5.71-8.78h-2.47v8.78c-1.84,0.32-4.55,0.32-6.38,0v-25.94H159.91z M155.92,213.3h3.99     c1.76,0,3.27-1.04,3.27-3.27s-1.52-3.27-3.27-3.27h-3.99V213.3z"/>
			<path class="st0" d="M191.28,202.85c0.32,0.96,0.44,5.51,0,6.07c-2.91-1.72-5.19-2.75-7.14-2.75c-1.8,0-2.95,0.88-2.95,2.39     c0,1.64,1.44,2.11,4.63,3.11s7.34,2.71,7.34,8.1c0,5.47-4.27,8.22-9.54,8.22c-2.83,0-5.83-0.8-7.82-2     c-0.32-0.84-0.44-5.51,0-6.07c2.91,1.72,5.31,2.75,7.58,2.75s3.31-1.04,3.31-2.43c0-1.56-1.2-1.99-4.79-3.15     c-3.15-1.04-7.18-2.91-7.18-7.9c0-4.51,3.31-8.34,9.38-8.34C187.13,200.85,189.52,201.81,191.28,202.85z"/>
			<path class="st0" d="M204.72,227.39c-1.84,0.32-4.55,0.32-6.38,0v-25.94c1.84-0.32,4.55-0.32,6.38,0V227.39z"/>
			<path class="st0" d="M230.06,201.45c0.32,1.84,0.32,3.47,0,5.31h-7.02v20.63c-1.84,0.32-4.55,0.32-6.38,0v-20.63h-7.02     c-0.32-1.84-0.32-3.47,0-5.31H230.06z"/>
			<path class="st0" d="M249.29,227.39c-1.84,0.32-4.55,0.32-6.38,0v-8.98l-9.46-16.96c1.84-0.32,4.99-0.32,6.82,0l5.83,11.01     l5.83-11.01c1.84-0.32,4.99-0.32,6.82,0l-9.46,16.96V227.39z"/>
			<path class="st0" d="M289.7,218.57c0,5.07-3.77,9.23-9.36,9.23s-9.36-4.15-9.36-9.23c0-5.07,3.77-9.23,9.36-9.23     S289.7,213.5,289.7,218.57z M275.4,218.57c0,3.53,2.28,5.62,4.94,5.62s4.94-2.09,4.94-5.62c0-3.53-2.28-5.62-4.94-5.62     S275.4,215.04,275.4,218.57z"/>
			<path class="st0" d="M304.59,216.86c0.22,1.25,0.22,2.36,0,3.61h-7.03v6.92c-1.25,0.22-3.09,0.22-4.34,0v-17.64h12.29     c0.22,1.25,0.22,2.36,0,3.61h-7.95v3.5H304.59z"/>
			<path class="st0" d="M353.92,227.39c-1.84,0.32-4.39,0.32-6.22,0l-3.19-14.56l-5.27,14.56c-1.84,0.32-3.27,0.32-5.11,0     l-5.27-14.56l-3.19,14.56c-1.84,0.32-4.39,0.32-6.22,0l6.14-25.94c1.84-0.32,3.51-0.32,5.35,0l5.75,15.88l5.75-15.88     c1.84-0.32,3.51-0.32,5.35,0L353.92,227.39z"/>
			<path class="st0" d="M383.41,227.39c-1.84,0.32-4.75,0.32-6.58,0l-1.84-4.91h-9.5l-1.84,4.91c-1.84,0.32-4.75,0.32-6.58,0     l10.53-25.94c1.84-0.32,3.43-0.32,5.27,0L383.41,227.39z M372.99,217.09l-2.75-7.42l-2.75,7.42H372.99z"/>
			<path class="st0" d="M398.45,201.45c5.79,0,9.78,3.47,9.78,8.58c0,3.51-1.88,6.26-4.95,7.62l6.3,9.74     c-1.84,0.32-5.11,0.32-6.94,0l-5.71-8.78h-2.47v8.78c-1.84,0.32-4.55,0.32-6.38,0v-25.94H398.45z M394.46,213.3h3.99     c1.76,0,3.27-1.04,3.27-3.27s-1.52-3.27-3.27-3.27h-3.99V213.3z"/>
			<path class="st0" d="M428.58,227.39c-1.84,0.32-4.55,0.32-6.38,0v-8.98l-9.46-16.96c1.84-0.32,4.99-0.32,6.82,0l5.83,11.01     l5.83-11.01c1.84-0.32,4.99-0.32,6.82,0l-9.46,16.96V227.39z"/>
			<path class="st0" d="M459.78,222.08c0.32,1.84,0.32,3.47,0,5.31H442.7v-25.94c1.84-0.32,4.55-0.32,6.38,0v20.63H459.78z"/>
			<path class="st0" d="M491.1,227.39c-1.84,0.32-4.75,0.32-6.58,0l-1.84-4.91h-9.5l-1.84,4.91c-1.84,0.32-4.75,0.32-6.58,0     l10.53-25.94c1.84-0.32,3.43-0.32,5.27,0L491.1,227.39z M480.69,217.09l-2.75-7.42l-2.75,7.42H480.69z"/>
			<path class="st0" d="M519.12,227.39c-1.84,0.32-3.15,0.32-4.99,0l-12.09-15.2v15.2c-1.84,0.32-4.55,0.32-6.38,0v-25.94     c1.84-0.32,3.15-0.32,4.99,0l12.09,15.2v-15.2c1.84-0.32,4.55-0.32,6.38,0V227.39z"/>
			<path class="st0" d="M535.04,201.45c8.22,0,13.77,5.51,13.77,12.97c0,7.46-5.55,12.97-13.77,12.97h-9.86v-25.94H535.04z      M535.04,222.08c3.91,0,7.26-2.47,7.26-7.66c0-5.19-3.35-7.66-7.26-7.66h-3.47v15.32H535.04z"/>
			<path class="st0" d="M148.97,258.58c0.32,1.84,0.32,3.47,0,5.31H130.9v-25.93h18.07c0.32,1.84,0.32,3.47,0,5.31h-11.69v4.87     h10.33c0.32,1.84,0.32,3.47,0,5.31h-10.33v5.15H148.97z"/>
			<path class="st0" d="M179.01,263.88c-1.84,0.32-4.75,0.32-6.58,0l-1.84-4.91h-9.49l-1.84,4.91c-1.84,0.32-4.75,0.32-6.58,0     l10.53-25.93c1.84-0.32,3.43-0.32,5.27,0L179.01,263.88z M168.6,253.59l-2.75-7.42l-2.75,7.42H168.6z"/>
			<path class="st0" d="M198.64,239.35c0.32,0.96,0.44,5.51,0,6.06c-2.91-1.72-5.19-2.75-7.14-2.75c-1.8,0-2.95,0.88-2.95,2.39     c0,1.64,1.44,2.11,4.63,3.11c3.19,1,7.34,2.71,7.34,8.1c0,5.47-4.27,8.22-9.53,8.22c-2.83,0-5.82-0.8-7.82-1.99     c-0.32-0.84-0.44-5.51,0-6.06c2.91,1.72,5.31,2.75,7.58,2.75c2.27,0,3.31-1.04,3.31-2.43c0-1.56-1.2-1.99-4.79-3.15     c-3.15-1.04-7.18-2.91-7.18-7.9c0-4.51,3.31-8.34,9.38-8.34C194.49,237.35,196.88,238.31,198.64,239.35z"/>
			<path class="st0" d="M225.05,237.95c0.32,1.84,0.32,3.47,0,5.31h-7.02v20.63c-1.84,0.32-4.55,0.32-6.38,0v-20.63h-7.02     c-0.32-1.84-0.32-3.47,0-5.31H225.05z"/>
			<path class="st0" d="M248.23,258.58c0.32,1.84,0.32,3.47,0,5.31h-18.07v-25.93h18.07c0.32,1.84,0.32,3.47,0,5.31h-11.69v4.87     h10.33c0.32,1.84,0.32,3.47,0,5.31h-10.33v5.15H248.23z"/>
			<path class="st0" d="M263.82,237.95c5.78,0,9.77,3.47,9.77,8.58c0,3.51-1.88,6.26-4.95,7.62l6.3,9.73     c-1.83,0.32-5.11,0.32-6.94,0l-5.7-8.78h-2.47v8.78c-1.83,0.32-4.55,0.32-6.38,0v-25.93H263.82z M259.84,249.8h3.99     c1.76,0,3.27-1.04,3.27-3.27c0-2.23-1.52-3.27-3.27-3.27h-3.99V249.8z"/>
			<path class="st0" d="M302.36,263.88c-1.84,0.32-3.15,0.32-4.99,0l-12.09-15.2v15.2c-1.83,0.32-4.55,0.32-6.38,0v-25.93     c1.84-0.32,3.15-0.32,4.99,0l12.09,15.2v-15.2c1.84-0.32,4.55-0.32,6.38,0V263.88z"/>
			<path class="st0" d="M334.96,239.35c0.32,0.96,0.44,5.51,0,6.06c-2.91-1.72-5.19-2.75-7.14-2.75c-1.8,0-2.95,0.88-2.95,2.39     c0,1.64,1.44,2.11,4.63,3.11c3.19,1,7.34,2.71,7.34,8.1c0,5.47-4.27,8.22-9.53,8.22c-2.83,0-5.82-0.8-7.82-1.99     c-0.32-0.84-0.44-5.51,0-6.06c2.91,1.72,5.31,2.75,7.58,2.75c2.27,0,3.31-1.04,3.31-2.43c0-1.56-1.2-1.99-4.79-3.15     c-3.15-1.04-7.18-2.91-7.18-7.9c0-4.51,3.31-8.34,9.38-8.34C330.81,237.35,333.2,238.31,334.96,239.35z"/>
			<path class="st0" d="M359.33,237.95c1.83-0.32,4.55-0.32,6.38,0v25.93c-1.84,0.32-4.55,0.32-6.38,0v-10.45H348.6v10.45     c-1.83,0.32-4.55,0.32-6.38,0v-25.93c1.84-0.32,4.55-0.32,6.38,0v10.17h10.73V237.95z"/>
			<path class="st0" d="M397.03,250.92c0,7.46-5.55,13.56-13.76,13.56c-8.22,0-13.76-6.1-13.76-13.56s5.55-13.56,13.76-13.56     C391.48,237.35,397.03,243.46,397.03,250.92z M376.01,250.92c0,5.19,3.35,8.26,7.26,8.26c3.91,0,7.26-3.07,7.26-8.26     s-3.35-8.26-7.26-8.26C379.36,242.66,376.01,245.73,376.01,250.92z"/>
			<path class="st0" d="M411.19,237.95c5.78,0,9.77,3.47,9.77,8.58c0,3.51-1.88,6.26-4.95,7.62l6.3,9.73     c-1.83,0.32-5.11,0.32-6.94,0l-5.7-8.78h-2.47v8.78c-1.83,0.32-4.55,0.32-6.38,0v-25.93H411.19z M407.2,249.8h3.99     c1.76,0,3.27-1.04,3.27-3.27c0-2.23-1.52-3.27-3.27-3.27h-3.99V249.8z"/>
			<path class="st0" d="M445.26,258.58c0.32,1.84,0.32,3.47,0,5.31h-18.07v-25.93h18.07c0.32,1.84,0.32,3.47,0,5.31h-11.69v4.87     h10.33c0.32,1.84,0.32,3.47,0,5.31h-10.33v5.15H445.26z"/>
		</g>
	</g>
	<g id="HBCU_x2F_YEAR_00000181803025407392198230000007882964476999109005_">
		<g>
			<g>
				<path class="st0" d="M213.03,148.74c0.58-0.11,1.43-0.11,2.01,0v10.12c-0.58,0.11-1.43,0.11-2.01,0v-4.3h-4.91v4.3      c-0.58,0.11-1.45,0.11-2.02,0v-10.12c0.58-0.11,1.45-0.11,2.02,0v4.14h4.91V148.74z"/>
				<path class="st0" d="M222.58,148.74c1.92,0,3.24,1.07,3.24,2.62c0,1.09-0.59,1.87-1.43,2.26c1.04,0.4,1.68,1.28,1.68,2.41      c0,1.74-1.34,2.83-3.46,2.83h-4.25v-10.12H222.58z M220.37,153.02h2.04c0.84,0,1.39-0.47,1.39-1.29c0-0.84-0.56-1.31-1.43-1.31      h-1.99V153.02z M220.37,157.18h2.12c0.98,0,1.53-0.51,1.53-1.39c0-0.84-0.53-1.34-1.56-1.34h-2.09V157.18z"/>
				<path class="st0" d="M237.2,156.42c0.14,0.19,0.11,1.57,0,1.84c-0.69,0.44-1.76,0.84-3.18,0.84c-3.44,0-5.62-2.38-5.62-5.29      s2.18-5.29,5.62-5.29c1.42,0,2.49,0.41,3.18,0.84c0.11,0.26,0.14,1.65,0,1.84c-1.04-0.67-2.07-1-3.07-1      c-2.06,0-3.67,1.43-3.67,3.61s1.62,3.61,3.67,3.61C235.13,157.41,236.16,157.09,237.2,156.42z"/>
				<path class="st0" d="M246.96,148.74c0.58-0.11,1.48-0.11,2.06,0v6c0,2.97-1.57,4.36-4.22,4.36c-2.65,0-4.24-1.39-4.24-4.36v-6      c0.58-0.11,1.48-0.11,2.06,0v6.29c0,1.42,0.78,2.38,2.18,2.38c1.39,0,2.16-0.97,2.16-2.38V148.74z"/>
			</g>
		</g>
		<g>
			<g>
				<path class="st0" d="M327.34,148.74c0.58-0.11,1.01-0.11,1.59,0v10.12c-0.58,0.11-1.45,0.11-2.01,0v-7.88l-2.2,1.57      c-0.14-0.2-0.11-1.68,0-1.95L327.34,148.74z"/>
				<path class="st0" d="M338.72,151.25c0,1.09-0.59,1.98-1.46,2.4c1.09,0.44,1.71,1.39,1.71,2.54c0,1.84-1.57,2.93-3.66,2.93      c-2.09,0-3.66-1.09-3.66-2.93c0-1.15,0.62-2.1,1.71-2.54c-0.87-0.42-1.46-1.31-1.46-2.4c0-1.54,1.29-2.74,3.41-2.74      C337.43,148.51,338.72,149.71,338.72,151.25z M335.23,154.53c-0.89,0-1.53,0.56-1.53,1.43c0,0.95,0.72,1.46,1.6,1.46      c0.89,0,1.6-0.51,1.6-1.46c0-0.87-0.62-1.43-1.53-1.43H335.23z M333.89,151.57c0,0.79,0.56,1.39,1.34,1.39h0.16      c0.79,0,1.34-0.61,1.34-1.39s-0.54-1.39-1.42-1.39C334.44,150.19,333.89,150.8,333.89,151.57z"/>
				<path class="st0" d="M348.17,151.25c0,1.09-0.59,1.98-1.46,2.4c1.09,0.44,1.71,1.39,1.71,2.54c0,1.84-1.57,2.93-3.66,2.93      c-2.09,0-3.66-1.09-3.66-2.93c0-1.15,0.62-2.1,1.71-2.54c-0.87-0.42-1.46-1.31-1.46-2.4c0-1.54,1.29-2.74,3.41-2.74      C346.88,148.51,348.17,149.71,348.17,151.25z M344.68,154.53c-0.89,0-1.53,0.56-1.53,1.43c0,0.95,0.72,1.46,1.6,1.46      c0.89,0,1.6-0.51,1.6-1.46c0-0.87-0.62-1.43-1.53-1.43H344.68z M343.34,151.57c0,0.79,0.56,1.39,1.34,1.39h0.16      c0.79,0,1.34-0.61,1.34-1.39s-0.54-1.39-1.42-1.39C343.89,150.19,343.34,150.8,343.34,151.57z"/>
				<path class="st0" d="M358.21,155.59c0,1.9-1.42,3.5-3.71,3.5c-2.32,0-3.74-1.59-3.74-3.72c0-3.22,3.13-6.01,4.25-6.63      c0.56-0.11,1.88-0.11,2.46,0c-1.62,1.28-3.13,2.62-3.89,4.13c0.36-0.25,0.9-0.5,1.65-0.48      C357.08,152.43,358.21,153.86,358.21,155.59z M356.16,155.62c0-1.03-0.67-1.68-1.65-1.68c-0.69,0-1.23,0.33-1.57,0.67      c-0.08,0.34-0.11,0.69-0.11,1.04c0,0.98,0.62,1.76,1.67,1.76C355.47,157.41,356.16,156.7,356.16,155.62z"/>
			</g>
		</g>
	</g>
	<g>
		<path class="st1" d="M287.08,198.56c6.2,0,14.43-3.24,19.17-6.65c-0.41-0.41-1.87-1.87-1.87-1.87c5.13,0.18,9.48-2.28,13.29-6.27    c0,0-1.65-1.35-1.65-1.35c4.9-2.4,6.33-4.65,7.81-9.32c0,0-11.14-15.5-15-21.13c25.45-17.2,101.58-9.29,119.46-54.46l-5.25,0.16    c22.17-10.85,36.01-36.56,31.15-70.33c-5.36,6.59-12.94,14.76-19.96,18.71c0.62-10.67-2.14-14.19-3.59-22.54    c-6.68,7.7-13.48,14.9-22.61,20.63l2.07-6.7l-0.04,0.03l-10.28,7.89c-14.62,11.22-33.04,17.37-54.57,18.27l0,0    c-11.41,0.69-30.24,8.63-39.94,16.2c-4.76-6.13-11.26-9.66-18.16-9.66h-0.06c-6.9,0-13.41,3.53-18.16,9.66    c-9.7-7.57-28.52-15.51-39.94-16.2l0,0c-21.53-0.9-39.95-7.05-54.57-18.27l-10.28-7.89l-0.04-0.03l2.07,6.7    c-9.13-5.73-15.93-12.93-22.61-20.63c-1.45,8.35-4.21,11.87-3.59,22.54c-7.02-3.94-14.6-12.12-19.96-18.71    c-4.86,33.77,8.98,59.48,31.15,70.33l-5.25-0.16c17.88,45.17,94.01,37.25,119.46,54.46c-3.87,5.63-15,21.13-15,21.13    c1.49,4.67,2.91,6.91,7.81,9.32c0,0-1.65,1.35-1.65,1.35c3.81,3.99,8.16,6.45,13.29,6.27c0,0-1.46,1.46-1.87,1.87    c4.74,3.42,12.97,6.65,19.17,6.65H287.08z M402.53,48.94C402.53,48.94,402.53,48.93,402.53,48.94    C402.53,48.94,402.53,48.94,402.53,48.94L402.53,48.94 M269.75,86.8v0.01c0,0,0,0,0,0l0,0V86.8"/>
	</g>
	<path class="st2" d="M171.65,48.94c16.91,12.98,36.81,18.35,57.04,19.19c12.24,0.74,35.06,11.1,41.07,18.69l0-0.01v0.01   c4.24-8.11,10.78-12.15,17.33-12.14c6.56-0.01,13.09,4.02,17.33,12.14V86.8v0.01c6.01-7.59,28.84-17.95,41.07-18.69   c20.23-0.85,40.12-6.21,57.04-19.19h0c0,0-0.74,2.41-2.94,5.63c11.67-5.76,21.6-12.92,29.33-21.51c0.55,2.38,3.75,10.12-0.65,21.73   c3.9-1.49,15.79-7.96,23.53-16.88c1.58,11.39-4.13,30.07-20.31,38.96c3.15-0.37,8.29-1.8,12.07-3.93   c-3.5,7.38-6.25,14.53-33.1,27.02c1.9,0.98,4.17,1.75,6.66,2.17c1.26,0.22,2.49,0.33,3.68,0.36   c-21.63,36.03-98.88,28.33-117.35,48.17c2.42,3.49,15.06,22.85,15.06,22.85c-0.96,3.98-4.91,6.89-8.52,6.89l2.04,1.99   c-5.71,5.71-14.05,4.41-14.05,4.41l2.11,2.72c-4.94,3.14-7.67,4.5-12.99,4.5c-5.32-0.01-8.05-1.36-12.99-4.5l2.11-2.72   c0,0-8.33,1.3-14.05-4.41l2.04-1.99c-3.61,0-7.56-2.91-8.52-6.89c0,0,12.64-19.37,15.06-22.85   c-18.47-19.84-95.71-12.14-117.35-48.17c1.19-0.02,2.42-0.14,3.68-0.36c2.48-0.43,4.75-1.19,6.66-2.17   c-26.85-12.49-29.61-19.64-33.1-27.02c3.77,2.13,8.91,3.56,12.07,3.93c-16.18-8.89-21.89-27.57-20.31-38.96   c7.74,8.92,19.63,15.38,23.53,16.88c-4.4-11.61-1.2-19.35-0.65-21.73c7.73,8.59,17.66,15.75,29.33,21.51   C172.39,51.35,171.65,48.94,171.65,48.94z"/>
	<g>
		<g>
			<path class="st1" d="M292.93,99.7c-1.01,0.07-2.63,0.19-2.63,0.19s-0.02-0.56-0.04-0.82c-0.05-0.68-0.19-1.35-0.45-2     c-0.22-0.54-0.54-1.04-0.9-1.5c-0.49-0.61-1-1.19-1.5-1.79c-0.1-0.12-0.21-0.24-0.32-0.37c-0.11,0.13-0.22,0.25-0.32,0.37     c-0.5,0.6-1.01,1.18-1.5,1.79c-0.37,0.46-0.68,0.96-0.9,1.5c-0.26,0.65-0.4,1.32-0.45,2c-0.02,0.25-0.04,0.82-0.04,0.82     s-3.41-0.25-3.42-0.24c0,0,0,0,0,0c0.03,0.02,2.4,2.03,2.4,2.03s1.34,1.24,1.78,2.06c0.49,0.89,1.56,4.23,2.44,4.23h0     c0.87,0,1.95-3.35,2.44-4.23c0.45-0.82,1.78-2.06,1.78-2.06s1.09-0.93,1.81-1.53C293.45,99.87,293.36,99.67,292.93,99.7z      M285.98,98.08c-0.14,0.24-0.42,0.51-0.58,0.73c-0.19,0.26-0.36,0.52-0.44,0.86c-0.01-0.03-0.02-0.06-0.02-0.09     c-0.07-0.29-0.08-0.58-0.01-0.88c0.09-0.45,0.28-0.87,0.63-1.12c0.14-0.1,0.3-0.17,0.45-0.07     C286.12,97.65,286.1,97.89,285.98,98.08z M289.24,99.59c-0.01,0.03-0.02,0.06-0.02,0.09c-0.08-0.34-0.26-0.6-0.44-0.86     c-0.16-0.22-0.44-0.5-0.58-0.73c-0.12-0.19-0.14-0.43-0.02-0.56c0.14-0.1,0.31-0.03,0.45,0.07c0.34,0.25,0.53,0.67,0.63,1.12     C289.32,99,289.32,99.3,289.24,99.59z"/>
			<path class="st0" d="M287.1,92.3c-0.01,0-0.01,0-0.02,0c-0.01,0-0.01,0-0.02,0H287.1z"/>
			<g>
				<path class="st1" d="M278.85,92.81c-0.37-0.27-0.73-0.56-1.08-0.84c-0.06,0.06-0.12,0.12-0.18,0.19      c-0.87,1.05-0.76,2.7,0.24,3.67c1,0.97,2.51,0.91,3.38-0.15c0.24-0.29,0.4-0.63,0.5-0.99c-0.35-0.2-0.69-0.41-1.03-0.63      c-0.01,0.28-0.11,0.56-0.29,0.79c-0.44,0.54-1.21,0.57-1.72,0.07c-0.51-0.5-0.56-1.33-0.12-1.87      C278.64,92.96,278.74,92.88,278.85,92.81z"/>
			</g>
			<g>
				<g>
					<path class="st1" d="M281.05,141.03c-0.52-1.72-1.79-1.4-2.57-0.71c-1.38,1.21-0.12,2.34-1.38,4.28       C280.7,144.43,281.46,142.41,281.05,141.03z"/>
					<g>
						<path class="st1" d="M266.49,135.71c-0.49-0.91-1.58-1.65-2.65-0.22c-0.87,1.15-0.85,3.3,2.47,4.71        C265.8,137.94,267.36,137.32,266.49,135.71z"/>
						<path class="st1" d="M269.4,131.47c-0.49-0.91-1.58-1.65-2.65-0.22c-0.87,1.15-0.85,3.3,2.47,4.71        C268.71,133.71,270.27,133.09,269.4,131.47z"/>
						<path class="st1" d="M272.95,128.11c-0.49-0.91-1.58-1.65-2.65-0.22c-0.87,1.15-0.85,3.3,2.47,4.71        C272.25,130.35,273.82,129.72,272.95,128.11z"/>
					</g>
				</g>
				<path class="st0" d="M280.63,137.96c-0.28-1.92-4.02-6.94-5.3-7.71c2.29,3.88-0.83,6.64,1.6,9.01      C277.61,138.23,278.9,137.4,280.63,137.96z"/>
			</g>
			<path class="st0" d="M299.92,87.25c0.07,0.51,0.12,1.03,0.12,1.57c0,3.08-1.29,5.83-3.29,7.62l5.42-3.3     c-0.76-10.33-7.92-15.41-15.08-15.32c-7.16-0.09-14.32,4.99-15.08,15.32l5.07,3.09l0.35,0.21c-0.1-0.09-0.21-0.19-0.31-0.29     c-1.83-1.79-2.98-4.41-2.98-7.33c0-0.54,0.05-1.06,0.12-1.57c1.99,2.63,4.79,5.13,7.99,7.05c0.65-0.64,1.32-1.19,1.91-1.43     c0.97-0.4,1.97-0.58,2.93-0.56c0.96-0.02,1.96,0.16,2.93,0.56c0.59,0.25,1.27,0.79,1.91,1.43     C295.13,92.38,297.93,89.88,299.92,87.25z"/>
			<g>
				<g>
					<path class="st1" d="M293.13,141.03c0.52-1.72,1.79-1.4,2.57-0.71c1.38,1.21,0.12,2.34,1.38,4.28       C293.47,144.43,292.71,142.41,293.13,141.03z"/>
					<g>
						<path class="st1" d="M307.68,135.71c0.49-0.91,1.58-1.65,2.65-0.22c0.87,1.15,0.85,3.3-2.47,4.71        C308.38,137.94,306.81,137.32,307.68,135.71z"/>
						<path class="st1" d="M304.77,131.47c0.49-0.91,1.58-1.65,2.65-0.22c0.87,1.15,0.85,3.3-2.47,4.71        C305.46,133.71,303.9,133.09,304.77,131.47z"/>
						<path class="st1" d="M301.22,128.11c0.49-0.91,1.58-1.65,2.65-0.22c0.87,1.15,0.85,3.3-2.47,4.71        C301.92,130.35,300.35,129.72,301.22,128.11z"/>
					</g>
				</g>
				<path class="st0" d="M293.55,137.96c0.28-1.92,4.02-6.94,5.3-7.71c-2.29,3.88,0.83,6.64-1.6,9.01      C296.56,138.23,295.28,137.4,293.55,137.96z"/>
			</g>
			<path class="st0" d="M401.21,62.32c7.76-3.83,14.72-8.22,20.81-13.12c-0.46,3.37-5.55,15.5-6.73,18.94     c8.92-3.57,16.83-5.6,25.97-11.88c-18.18,40.26-103.52,27.08-133.37,36.96C342.13,65.94,352.19,85.59,401.21,62.32z"/>
			<path class="st0" d="M267.29,93.22c-29.85-9.88-115.19,3.3-133.37-36.96c9.14,6.27,17.05,8.31,25.97,11.88     c-1.19-3.44-6.27-15.58-6.73-18.94c6.1,4.9,13.05,9.29,20.81,13.12C222.99,85.59,233.05,65.94,267.29,93.22z"/>
			<path class="st0" d="M146.06,82.41c4.87,5.15,20.8,13.45,33.02,14.27c-3.44,3.25-13,8.42-14.91,8.8     c20.32,0.33,26.01-1.86,50.36-12.54C186.88,95.29,169.76,90.08,146.06,82.41z"/>
			<path class="st0" d="M428.95,82.9c-4.87,5.15-20.8,13.45-33.02,14.27c3.44,3.25,13,8.42,14.91,8.8     c-20.32,0.33-26.01-1.86-50.36-12.54C388.13,95.78,405.25,90.57,428.95,82.9z"/>
			<path class="st0" d="M313.95,174.77c0,0-9.51-14.93-10.73-16.86l8.42,16.76c-2.55,3.01-10.21,2.58-12.09,1.33l4.41,4.68     c-4.04,2.88-11.75,1.23-14.22,0.53l3.32,5.78c-2.62,2.29-9.12,2.6-12.31,0.02l3.3-5.8c-2.46,0.7-10.19,2.58-14.27-0.5l4.44-4.71     c-1.88,1.25-9.5,1.74-11.98-1.32c0,0,8.29-16.77,8.34-16.77c0.05,0-10.76,16.86-10.76,16.86c2,3.39,8.08,4.83,9.96,3.58     l-3.09,2.84c3.83,3.47,11.64,2.83,14.1,2.13l-2.8,4.19c1.59,1.19,3.67,3.12,8.94,3.04c4.73,0,7.7-1.92,8.88-3.06l-2.79-4.17     c2.51,0.9,10.42,1.14,14.24-2.13l-3.08-2.84C306.06,179.6,311.95,178.16,313.95,174.77z"/>
			<g>
				<path class="st1" d="M295.32,92.81c0.37-0.27,0.73-0.56,1.08-0.84c0.06,0.06,0.12,0.12,0.18,0.19c0.87,1.05,0.76,2.7-0.24,3.67      c-1,0.97-2.51,0.91-3.38-0.15c-0.24-0.29-0.4-0.63-0.5-0.99c0.35-0.2,0.69-0.41,1.03-0.63c0.01,0.28,0.11,0.56,0.29,0.79      c0.44,0.54,1.21,0.57,1.72,0.07c0.51-0.5,0.56-1.33,0.12-1.87C295.54,92.96,295.43,92.88,295.32,92.81z"/>
			</g>
		</g>
	</g>
</g>
</svg>